<?xml version="1.0" standalone="no"?>
<!DOCTYPE svg PUBLIC "-//W3C//DTD SVG 20010904//EN"
 "http://www.w3.org/TR/2001/REC-SVG-20010904/DTD/svg10.dtd">
<svg version="1.0" xmlns="http://www.w3.org/2000/svg"
 width="2400.000000pt" height="2400.000000pt" viewBox="0 0 2400.000000 2400.000000"
 preserveAspectRatio="xMidYMid meet">
<metadata>
Created by potrace 1.11, written by Peter Selinger 2001-2013
</metadata>
<g transform="translate(0.000000,2400.000000) scale(0.100000,-0.100000)"
fill="#000000" stroke="none">
<path d="M0 12000 l0 -12000 12000 0 12000 0 0 12000 0 12000 -12000 0 -12000
0 0 -12000z m23440 3015 l0 -8385 -11430 0 -11430 0 0 8385 0 8385 11430 0
11430 0 0 -8385z m-14838 -10165 c87 -24 133 -92 126 -184 -19 -227 -273 -508
-934 -1032 l-182 -144 -52 -133 c-72 -181 -161 -437 -152 -436 4 0 43 44 87
97 109 131 494 517 580 580 96 71 198 122 246 122 60 0 79 -25 79 -105 0 -69
-4 -78 -159 -368 -63 -117 -105 -234 -121 -341 -15 -101 -7 -158 30 -199 53
-60 122 -39 285 88 198 154 395 370 471 515 24 47 93 151 154 232 121 161 130
168 235 168 51 0 116 -25 123 -47 2 -7 -23 -39 -55 -70 -119 -116 -287 -345
-356 -485 -69 -140 -106 -323 -77 -378 14 -26 68 -42 106 -31 186 53 410 299
663 729 l72 122 47 0 c56 -1 141 -29 155 -51 8 -12 -4 -44 -46 -130 -69 -138
-111 -265 -137 -413 -24 -134 -17 -196 31 -247 28 -30 33 -31 80 -26 81 10
228 96 359 210 181 158 366 437 414 623 55 213 -28 384 -180 372 -43 -3 -56
15 -24 32 31 16 166 17 223 1 56 -16 110 -71 126 -128 16 -55 13 -166 -4 -237
-22 -86 -103 -244 -183 -355 -130 -183 -402 -442 -551 -524 -83 -45 -194 -71
-266 -62 -103 14 -164 59 -195 145 -20 57 -24 273 -7 355 8 39 13 72 12 74 -2
1 -17 -23 -34 -55 -72 -143 -215 -323 -326 -414 -83 -67 -144 -90 -238 -90
-127 0 -202 52 -237 164 -13 41 -9 203 5 241 5 11 -53 -43 -127 -120 -237
-246 -367 -325 -538 -329 -140 -3 -210 94 -196 269 9 108 51 227 152 434 47
96 84 183 82 195 -5 37 -55 32 -124 -14 -131 -86 -240 -203 -479 -515 -234
-306 -236 -308 -316 -345 -78 -36 -136 -45 -131 -20 4 19 200 567 253 709 21
57 39 108 39 113 0 4 -42 -41 -92 -101 -51 -60 -137 -161 -191 -224 -195 -230
-371 -391 -493 -451 -71 -35 -179 -59 -228 -51 -55 8 -107 40 -136 82 -22 32
-25 47 -25 127 0 94 23 180 81 314 13 28 20 52 16 52 -4 0 -21 -22 -39 -48
-42 -61 -219 -253 -304 -330 -152 -136 -274 -193 -419 -196 -180 -3 -237 201
-144 522 14 47 23 86 21 89 -3 2 -32 -41 -65 -95 -141 -230 -287 -392 -397
-444 -60 -27 -73 -30 -138 -26 -94 6 -167 38 -216 94 -57 65 -73 150 -52 279
l8 49 -24 -29 c-101 -120 -196 -203 -273 -239 -93 -44 -199 -29 -238 33 -9 14
-17 28 -19 30 -1 2 -47 -39 -101 -90 -135 -130 -224 -171 -372 -172 -119 -1
-207 49 -257 147 -22 42 -28 68 -31 148 -7 150 32 283 128 443 149 248 374
415 558 415 116 0 182 -52 182 -145 0 -36 -5 -59 -16 -70 -20 -20 -34 -5 -34
36 0 46 -30 72 -82 72 -67 -1 -138 -43 -240 -141 -172 -165 -287 -350 -329
-527 -76 -320 122 -431 378 -213 34 29 85 81 113 116 41 52 48 67 40 82 -27
50 7 116 61 122 27 3 34 10 55 61 42 105 49 212 19 288 -8 21 32 65 66 73 64
14 106 -67 96 -185 -7 -82 -42 -169 -112 -280 -30 -48 -55 -98 -55 -111 0 -14
12 -37 26 -52 57 -56 165 -22 288 91 98 89 205 219 252 303 57 102 152 244
203 301 36 41 38 42 112 47 81 5 149 -10 149 -33 0 -7 -42 -55 -92 -107 -151
-153 -265 -334 -317 -500 -52 -172 -37 -240 61 -268 62 -18 191 45 316 155
127 112 338 399 507 687 l120 205 40 -5 c57 -7 149 -44 153 -62 1 -9 -47 -101
-108 -205 -163 -279 -200 -363 -234 -527 -31 -150 -15 -237 47 -263 63 -26
135 8 292 135 133 108 227 204 329 334 140 178 194 256 244 354 l43 82 -40 -6
c-51 -8 -88 1 -100 25 -27 50 34 97 139 108 74 7 61 -9 211 271 63 118 129
231 147 253 32 37 36 39 91 39 75 0 111 -25 111 -77 0 -48 -25 -96 -72 -139
-25 -22 -75 -96 -133 -197 -51 -89 -92 -163 -90 -165 1 -2 93 5 203 14 191 16
252 15 252 -5 0 -11 -67 -37 -130 -50 -25 -6 -119 -19 -209 -31 -91 -11 -168
-23 -172 -25 -31 -20 -242 -449 -297 -606 -28 -79 -36 -135 -33 -231 1 -15 14
-42 30 -60 52 -59 119 -41 267 71 107 80 294 259 368 352 34 42 109 134 167
205 161 197 154 184 132 222 -26 46 -10 68 50 65 l46 -3 120 238 c210 417 356
637 533 808 97 94 150 131 246 170 63 26 159 32 224 14z m-5417 -50 c163 -52
195 -164 98 -339 -56 -101 -129 -171 -178 -171 -27 0 -16 21 46 88 34 37 71
87 81 111 69 153 -108 245 -405 212 -221 -24 -414 -80 -612 -176 -315 -153
-379 -269 -211 -381 32 -21 179 -85 348 -151 437 -170 527 -217 661 -343 80
-74 120 -150 125 -236 5 -81 -15 -143 -79 -233 -176 -251 -686 -534 -1165
-647 -109 -26 -136 -29 -314 -29 -156 0 -211 4 -275 19 -155 36 -233 86 -279
178 -62 124 -15 337 107 489 116 145 376 304 586 360 135 35 310 45 326 18 9
-14 -10 -19 -109 -29 -112 -11 -185 -34 -313 -95 -170 -82 -342 -235 -405
-358 -40 -79 -50 -184 -23 -238 52 -101 125 -150 261 -174 129 -23 347 -17
534 16 153 26 453 130 625 216 232 117 398 280 412 406 10 89 -39 183 -128
243 -85 57 -299 144 -662 270 -200 70 -322 131 -397 201 -69 63 -93 115 -93
198 1 108 82 223 230 323 155 105 450 210 738 263 141 26 370 21 470 -11z
m13405 -4 c107 -18 260 -52 305 -68 173 -62 313 -178 377 -314 103 -220 15
-452 -248 -650 -260 -195 -741 -341 -1221 -370 -62 -4 -113 -10 -113 -14 0
-10 268 -344 407 -508 140 -164 235 -258 373 -371 202 -166 347 -247 570 -322
149 -49 266 -65 393 -51 120 13 189 44 251 113 60 67 80 130 72 220 -7 65 -6
69 13 69 39 0 56 -45 56 -150 0 -122 -30 -220 -87 -285 -53 -61 -175 -120
-291 -142 -249 -48 -626 67 -902 275 -108 82 -190 159 -313 294 -196 217 -247
284 -545 722 -75 109 -101 136 -118 119 -19 -20 -220 -431 -248 -507 -37 -104
-40 -149 -10 -170 34 -23 65 -5 168 102 73 75 95 93 98 79 3 -10 -12 -40 -35
-70 -21 -29 -56 -77 -76 -108 -44 -69 -125 -146 -161 -155 -38 -9 -123 2 -151
21 -14 9 -24 25 -24 39 0 80 89 318 221 595 44 90 79 167 79 170 0 4 -21 12
-46 19 -37 10 -48 18 -60 47 -12 30 -12 39 0 69 8 19 23 39 34 45 29 15 86 14
127 -3 l34 -15 24 42 c121 208 198 383 195 446 -3 78 96 222 233 338 125 105
219 132 327 93 65 -24 107 -60 117 -102 7 -26 6 -26 -33 -21 -146 20 -379
-226 -663 -696 -87 -144 -88 -146 -66 -158 75 -42 486 31 817 145 344 118 644
328 732 510 28 60 30 71 26 151 -7 140 -68 225 -209 295 -329 162 -1092 136
-1596 -54 -178 -67 -283 -131 -394 -240 -99 -97 -132 -147 -155 -235 -38 -139
-6 -198 151 -285 54 -30 100 -60 102 -67 11 -32 -79 -18 -167 27 -58 30 -141
114 -169 173 -21 43 -23 59 -19 165 3 111 5 120 38 182 42 79 164 204 270 276
240 164 508 261 832 299 152 19 548 13 678 -9z m-2635 -541 c16 -15 25 -35 25
-56 0 -40 -41 -111 -80 -139 -18 -13 -65 -84 -124 -187 -52 -92 -94 -169 -92
-170 2 -2 93 4 203 13 110 9 213 14 229 10 l29 -8 -23 -18 c-30 -25 -122 -44
-327 -70 -93 -12 -170 -22 -171 -23 0 -1 -21 -36 -45 -77 -60 -101 -198 -391
-244 -515 -66 -176 -58 -298 22 -332 60 -25 132 9 288 135 96 78 293 275 345
345 25 34 50 57 61 57 24 0 24 -11 -1 -61 -41 -80 -271 -329 -398 -431 -133
-107 -291 -163 -389 -139 -173 44 -192 213 -58 528 l25 58 -27 -35 c-91 -113
-137 -161 -151 -158 -36 7 -22 41 61 146 133 170 210 281 255 367 23 45 42 83
42 86 0 4 -21 4 -48 1 -37 -3 -53 0 -72 16 -21 17 -23 24 -15 48 13 37 61 61
145 71 l64 8 79 145 c236 434 217 410 308 410 50 0 64 -4 84 -25z m6225 -67
c-1 -29 -38 -156 -58 -194 -27 -53 -75 -104 -99 -104 -37 1 -108 22 -125 37
-38 35 -34 40 186 211 81 63 96 71 96 50z m-7005 -198 c48 -23 95 -80 95 -116
0 -11 -7 -45 -16 -75 -12 -41 -28 -66 -70 -106 -29 -29 -60 -53 -69 -53 -24 0
-17 33 16 73 51 61 63 133 29 167 -74 74 -440 -52 -632 -218 -123 -107 -187
-200 -188 -274 0 -59 43 -97 218 -196 176 -99 256 -166 267 -225 22 -113 -95
-274 -280 -386 -123 -75 -336 -140 -467 -144 -64 -2 -81 1 -105 19 -58 43 -56
95 7 166 42 49 182 129 197 114 4 -4 -3 -15 -17 -24 -14 -9 -46 -38 -72 -64
-58 -58 -63 -94 -20 -128 37 -30 97 -22 198 25 176 81 329 232 368 365 20 67
20 103 1 140 -17 34 -110 102 -210 154 -71 36 -137 91 -167 136 -9 14 -18 23
-20 20 -3 -3 -48 -70 -101 -150 -52 -80 -122 -175 -155 -213 -156 -177 -390
-339 -577 -397 -88 -27 -238 -37 -331 -21 -100 17 -186 62 -234 122 -49 63
-64 114 -57 204 17 228 178 438 502 657 127 86 249 149 327 168 69 18 181 9
215 -16 57 -43 68 -68 68 -163 0 -80 -3 -91 -29 -131 -74 -113 -185 -203 -337
-274 -167 -79 -341 -123 -374 -96 -25 21 -18 27 44 39 124 24 376 175 503 301
64 64 79 85 92 132 20 68 9 104 -35 113 -36 8 -83 -7 -179 -56 -100 -52 -186
-118 -298 -229 -148 -146 -239 -280 -286 -422 -42 -125 -32 -194 37 -255 141
-123 589 47 872 331 149 150 293 377 330 521 31 118 102 205 244 300 202 134
389 198 563 191 64 -3 98 -9 133 -26z m5937 -272 c53 -23 118 -87 118 -118 0
-27 -16 -25 -52 5 -150 127 -543 -22 -844 -320 -171 -168 -284 -356 -284 -470
0 -187 139 -161 439 83 139 113 327 294 453 435 157 178 145 167 188 167 47 0
141 -33 164 -58 15 -17 10 -30 -68 -193 -45 -96 -129 -270 -185 -388 -56 -117
-100 -215 -98 -217 6 -6 114 72 207 150 161 135 264 231 351 329 99 112 229
289 229 313 0 24 60 164 90 209 25 39 28 40 82 40 67 0 98 -22 98 -68 0 -17
-47 -128 -114 -266 -140 -291 -184 -406 -192 -504 -8 -90 10 -137 62 -162 65
-31 147 13 342 180 182 156 299 292 395 458 91 157 236 300 375 369 70 35 94
42 161 46 68 4 86 1 126 -18 28 -14 52 -34 62 -54 19 -36 22 -121 6 -137 -20
-20 -43 -2 -43 34 0 72 -76 91 -175 43 -31 -16 -92 -63 -141 -108 -246 -233
-396 -561 -339 -741 25 -80 60 -110 135 -115 50 -4 69 0 122 25 79 37 170 112
236 196 47 58 51 68 42 92 -20 53 13 115 61 115 34 0 47 21 79 128 22 73 23
95 4 210 -8 49 10 77 53 85 64 12 95 -29 101 -134 6 -109 -25 -198 -124 -352
-24 -37 -44 -77 -44 -88 0 -11 14 -34 30 -51 28 -28 35 -30 85 -26 71 6 138
51 260 173 151 151 171 185 239 390 93 284 87 275 173 275 54 0 96 -18 101
-42 2 -8 -20 -71 -49 -139 -72 -172 -220 -561 -217 -570 2 -4 45 41 96 101
129 151 368 396 492 507 219 195 400 237 400 91 0 -68 -27 -140 -122 -329
-107 -211 -152 -345 -153 -454 0 -87 14 -133 47 -154 30 -19 90 -16 135 7 109
56 381 300 493 442 59 74 90 95 104 71 17 -27 -196 -285 -349 -422 -164 -147
-282 -204 -415 -197 -170 8 -228 90 -201 287 17 118 48 206 148 412 47 97 83
185 81 195 -6 32 -48 27 -118 -13 -85 -50 -248 -213 -372 -373 -53 -69 -152
-197 -220 -285 -69 -88 -138 -169 -155 -180 -38 -27 -170 -72 -179 -62 -8 8 1
40 96 307 l61 175 -37 -45 c-94 -113 -201 -202 -282 -233 -86 -34 -191 -10
-223 50 l-13 24 -75 -74 c-139 -135 -214 -175 -361 -191 -125 -15 -241 44
-295 149 -29 56 -30 64 -30 180 l0 122 -120 -125 c-66 -69 -154 -152 -195
-185 -216 -172 -435 -191 -512 -44 -42 79 -24 200 61 417 l21 55 -47 -55 c-61
-71 -90 -98 -259 -252 -174 -158 -344 -300 -402 -336 -41 -26 -51 -42 -182
-302 -255 -507 -327 -625 -476 -774 -163 -163 -307 -216 -462 -167 -80 24
-116 52 -142 107 -45 91 -9 213 110 373 128 172 341 352 741 626 165 112 142
82 266 350 117 251 264 615 249 615 -3 0 -64 -71 -137 -157 -165 -197 -361
-392 -459 -459 -144 -98 -247 -117 -355 -65 -104 50 -174 146 -175 239 l0 43
-75 -65 c-242 -211 -450 -306 -667 -306 -154 0 -249 31 -331 109 -64 60 -81
103 -80 201 1 166 68 296 237 466 164 163 380 310 539 365 153 53 276 32 321
-55 25 -51 26 -158 1 -207 -75 -149 -272 -290 -516 -369 -106 -35 -211 -44
-217 -18 -2 13 9 19 54 28 70 15 228 94 348 174 197 133 301 291 235 357 -18
18 -28 20 -63 15 -114 -18 -280 -127 -446 -295 -172 -173 -258 -307 -296 -463
-26 -104 0 -178 76 -222 53 -32 189 -28 295 8 267 90 519 267 670 471 106 142
333 338 529 455 164 99 261 132 441 154 49 5 117 -5 167 -26z"/>
<path d="M9010 19353 c-63 -11 -180 -46 -225 -68 -27 -13 -69 -31 -92 -41 -24
-9 -43 -20 -43 -24 0 -4 -18 -10 -40 -14 -22 -3 -49 -15 -59 -25 -10 -10 -39
-23 -66 -30 -26 -7 -62 -23 -80 -36 -17 -14 -37 -25 -44 -25 -6 0 -14 -6 -17
-14 -3 -8 -20 -17 -39 -20 -18 -4 -44 -15 -56 -25 -13 -10 -33 -21 -44 -25
-11 -3 -45 -24 -75 -45 -30 -22 -73 -49 -95 -59 -22 -10 -46 -26 -54 -35 -7
-10 -20 -17 -28 -17 -7 0 -16 -7 -19 -15 -4 -9 -26 -25 -50 -36 -24 -11 -44
-24 -44 -30 0 -5 -13 -15 -30 -20 -16 -6 -30 -15 -30 -20 0 -5 -19 -18 -41
-30 -43 -21 -50 -26 -100 -69 -16 -14 -45 -36 -65 -50 -20 -14 -76 -61 -124
-105 -48 -44 -109 -96 -136 -115 -27 -19 -83 -62 -124 -96 -41 -34 -86 -65
-100 -69 -14 -4 -34 -16 -45 -26 -57 -54 -89 -79 -101 -79 -7 0 -17 -6 -21
-14 -11 -18 -127 -115 -191 -159 -29 -19 -69 -53 -90 -74 -20 -22 -44 -44 -54
-49 -9 -5 -36 -27 -60 -49 -23 -22 -70 -61 -103 -87 -62 -47 -160 -133 -205
-179 -14 -14 -39 -33 -55 -42 -17 -8 -54 -37 -82 -64 -29 -26 -73 -66 -99 -88
-25 -22 -51 -46 -57 -53 -24 -27 -44 -44 -117 -104 -41 -33 -83 -69 -93 -79
-10 -11 -27 -19 -38 -19 -11 0 -45 -26 -77 -58 -31 -31 -87 -82 -124 -111 -37
-29 -69 -60 -72 -67 -3 -8 -12 -14 -19 -14 -7 0 -27 -16 -43 -36 -53 -64 -99
-111 -125 -128 -25 -15 -25 -15 -36 17 -7 17 -15 50 -19 72 -3 22 -33 94 -65
161 -33 67 -59 126 -59 132 0 6 -11 23 -24 39 -13 15 -27 43 -31 61 -3 18 -15
37 -26 42 -10 6 -19 16 -19 23 0 18 -78 137 -90 137 -5 0 -11 8 -15 18 -6 18
-100 122 -111 122 -3 0 -28 22 -54 49 -26 27 -57 52 -69 56 -12 3 -21 10 -21
14 0 10 -81 61 -140 89 -25 12 -81 30 -125 41 -44 10 -93 24 -110 31 -40 16
-341 25 -430 12 -67 -10 -147 -32 -190 -53 -83 -41 -185 -109 -185 -123 0 -6
-25 -36 -56 -66 -52 -52 -154 -211 -154 -242 0 -8 -11 -29 -24 -47 -13 -17
-27 -52 -31 -77 -3 -25 -14 -64 -23 -87 -24 -63 -30 -539 -8 -658 29 -157 36
-184 62 -254 53 -143 116 -257 202 -365 12 -15 22 -32 22 -37 0 -18 80 -131
169 -238 69 -82 91 -115 87 -130 -3 -11 -6 -23 -6 -27 0 -5 -6 -8 -14 -8 -8 0
-27 -11 -43 -24 -15 -13 -38 -26 -49 -30 -12 -4 -29 -15 -39 -26 -10 -11 -22
-20 -27 -20 -8 0 -97 -57 -124 -79 -6 -5 -30 -18 -55 -30 -84 -41 -115 -59
-128 -75 -8 -9 -20 -16 -27 -16 -7 0 -23 -13 -36 -30 -12 -16 -27 -30 -32 -30
-6 0 -17 -9 -23 -19 -7 -11 -27 -22 -45 -26 -18 -3 -80 -29 -138 -57 -168 -80
-203 -95 -235 -103 -16 -3 -37 -12 -45 -19 -8 -7 -36 -19 -62 -26 -26 -7 -52
-18 -58 -25 -6 -7 -34 -19 -63 -26 -29 -6 -61 -18 -72 -25 -11 -7 -47 -17 -81
-23 -33 -5 -78 -16 -98 -25 -62 -26 -415 -61 -513 -52 -180 18 -299 38 -329
57 -17 10 -38 19 -46 19 -13 0 -79 45 -100 67 -4 5 -15 17 -25 28 -10 11 -31
46 -46 76 -23 47 -27 69 -27 136 0 59 4 84 15 93 8 7 17 28 21 47 6 31 9 34
32 28 14 -3 32 -15 39 -25 26 -37 178 -50 253 -22 32 12 77 79 84 126 15 97
-39 176 -146 216 -59 22 -109 20 -214 -9 -36 -10 -164 -116 -164 -137 0 -4
-12 -23 -26 -42 -37 -48 -76 -201 -68 -267 10 -89 36 -209 52 -240 28 -56 171
-184 223 -200 13 -4 36 -16 51 -26 14 -11 48 -23 75 -28 26 -6 65 -17 87 -26
101 -43 653 -37 740 8 10 5 50 13 87 18 38 5 86 17 106 28 21 10 58 22 83 26
25 4 59 15 75 25 17 9 50 22 75 28 25 6 63 20 85 32 21 11 45 20 52 20 7 0 59
23 116 50 57 28 107 50 111 50 5 0 19 9 33 20 14 11 38 20 54 20 15 0 41 11
57 25 17 14 36 25 44 25 8 0 35 13 59 30 24 16 49 30 55 30 6 0 19 9 29 20 10
11 36 25 57 32 23 7 53 27 71 48 18 21 42 40 53 44 12 4 29 15 39 26 10 11 24
20 32 20 7 0 23 11 35 25 12 14 29 25 38 25 10 0 34 14 55 30 21 17 43 30 50
30 6 0 20 9 31 21 26 28 92 59 112 52 43 -14 80 -34 97 -53 10 -11 23 -20 30
-20 6 0 24 -13 40 -30 16 -16 34 -30 40 -30 6 0 21 -11 33 -25 12 -14 27 -25
33 -25 12 0 45 -24 117 -85 35 -29 65 -45 107 -55 33 -7 71 -21 85 -30 14 -9
41 -20 60 -24 19 -3 54 -16 77 -27 24 -12 62 -23 86 -26 23 -2 52 -9 65 -15
25 -13 30 -53 6 -62 -8 -3 -24 -26 -35 -51 -11 -25 -24 -45 -28 -45 -19 0 -52
-82 -46 -112 12 -51 35 -58 211 -59 87 -1 168 -1 179 0 24 1 98 70 130 121 13
19 43 56 69 83 41 42 50 47 90 47 25 0 69 9 98 19 29 11 78 22 108 26 30 3 70
15 88 26 18 10 40 19 48 19 8 0 39 11 67 24 29 14 68 28 89 31 20 4 45 15 56
25 11 10 38 24 61 30 29 8 61 29 104 72 34 34 76 67 94 75 18 7 33 19 33 27 0
8 11 17 25 20 13 3 36 17 51 31 15 14 32 25 39 25 7 0 20 11 29 25 9 14 23 25
32 25 8 0 17 7 20 15 4 8 26 24 50 34 24 11 44 24 44 29 0 5 22 23 48 40 27
17 68 52 91 77 23 25 44 45 47 45 3 0 22 16 43 34 55 53 96 89 126 111 25 19
43 34 113 95 16 14 41 33 55 44 14 10 42 32 61 50 55 50 89 72 127 85 20 6 45
21 54 31 10 11 23 20 29 20 6 0 29 19 51 41 22 23 56 50 75 60 19 11 60 33 90
50 65 37 117 51 127 36 3 -5 -1 -15 -10 -22 -9 -7 -23 -27 -31 -46 -8 -19 -35
-52 -60 -74 -25 -22 -46 -43 -46 -46 0 -4 -41 -48 -90 -99 -50 -51 -97 -104
-106 -119 -9 -14 -37 -41 -62 -60 -46 -34 -166 -153 -220 -219 -15 -18 -39
-47 -54 -64 -16 -18 -28 -37 -28 -44 0 -8 -9 -18 -20 -24 -23 -12 -66 -55
-130 -129 -25 -29 -56 -63 -70 -76 -14 -13 -39 -49 -55 -80 -28 -53 -86 -125
-100 -125 -13 0 -57 -57 -76 -98 -24 -51 -19 -85 15 -107 18 -12 59 -16 183
-18 158 -2 160 -2 199 25 49 33 85 64 150 128 28 27 54 50 59 50 4 0 18 10 30
23 13 12 38 33 56 47 18 14 47 40 63 59 17 19 38 40 46 48 8 7 41 37 72 66 31
28 73 66 93 82 44 36 86 71 121 103 14 12 27 22 30 22 3 0 27 21 54 48 70 67
87 81 155 132 33 24 64 50 68 57 4 7 13 13 19 13 7 0 33 23 59 50 26 28 50 50
53 50 4 0 36 23 71 50 35 28 69 50 75 50 6 0 16 11 22 25 6 14 17 25 25 25 7
0 21 9 31 21 9 11 34 30 55 41 20 12 37 25 37 29 0 4 13 10 29 14 16 3 35 13
42 21 7 9 30 24 51 35 21 11 38 24 38 29 0 6 5 10 11 10 5 0 34 11 62 24 29
14 66 28 82 32 17 3 44 15 61 25 20 12 54 20 95 22 l64 2 -3 -30 c-2 -16 -10
-37 -18 -46 -8 -8 -14 -19 -14 -24 0 -5 -13 -23 -29 -39 -68 -72 -91 -100 -91
-112 0 -8 -5 -14 -11 -14 -6 0 -33 -22 -59 -49 -26 -27 -57 -52 -68 -56 -12
-3 -36 -26 -54 -51 -17 -24 -36 -44 -41 -44 -9 0 -38 -29 -125 -128 -73 -82
-195 -213 -231 -247 -6 -5 -36 -37 -66 -70 -31 -33 -66 -71 -79 -85 -38 -40
-76 -96 -76 -110 0 -13 -10 -26 -49 -65 -12 -11 -35 -36 -53 -54 -18 -19 -47
-50 -65 -67 -54 -56 -52 -133 4 -155 15 -6 97 -10 181 -10 168 1 185 5 239 62
17 19 58 57 89 84 32 28 68 60 81 72 13 13 37 30 53 38 16 8 37 30 46 47 19
36 67 88 83 88 5 0 18 10 28 23 10 12 32 29 50 36 18 7 38 20 45 28 7 8 22 19
35 24 13 5 23 15 23 22 0 8 12 19 26 26 37 17 174 121 174 132 0 5 10 14 23
20 28 12 70 43 139 102 30 26 59 47 63 47 6 0 134 97 178 135 9 8 23 15 31 15
8 0 18 5 21 10 4 6 25 23 48 37 23 14 46 32 50 39 4 8 14 14 22 14 8 0 23 10
34 22 23 24 70 54 146 93 65 33 91 48 112 66 10 8 30 21 46 29 15 7 27 17 27
21 0 5 17 17 38 27 20 11 51 27 67 36 17 9 42 16 58 16 15 0 36 9 46 19 20 20
99 38 124 28 21 -8 9 -64 -14 -70 -10 -3 -23 -16 -28 -29 -12 -32 -148 -168
-168 -168 -7 0 -112 -98 -151 -141 -7 -8 -63 -64 -125 -126 -115 -115 -121
-122 -185 -208 -20 -27 -40 -52 -45 -53 -14 -7 -75 -107 -82 -134 -4 -16 -11
-28 -15 -28 -5 0 -22 -37 -39 -81 -25 -64 -33 -104 -38 -184 -5 -95 -4 -106
20 -158 36 -80 86 -110 190 -115 100 -5 237 27 325 77 35 20 83 46 108 58 24
13 44 27 44 33 0 5 14 10 30 10 19 0 40 9 53 23 25 26 63 53 116 83 20 11 45
36 55 55 10 18 41 50 68 69 72 51 98 72 127 103 14 15 30 27 36 27 5 0 34 23
64 50 29 28 61 50 71 50 9 0 22 10 29 23 9 17 10 -3 7 -103 -5 -154 13 -289
49 -361 34 -67 121 -149 182 -173 69 -27 285 -34 381 -12 39 9 87 16 106 16
42 0 243 64 266 85 9 8 24 15 33 15 22 0 87 31 87 42 0 4 9 8 19 8 11 0 32 11
48 24 15 13 39 27 53 31 14 4 38 18 53 31 16 13 35 24 42 24 17 0 75 48 75 63
0 12 121 127 134 127 5 0 27 16 50 36 38 33 60 51 129 107 15 12 37 32 49 45
12 12 26 22 32 22 6 0 30 18 52 40 23 22 68 61 100 86 32 25 62 52 67 59 4 8
15 15 23 15 8 0 20 11 26 25 6 14 16 25 23 25 6 0 22 11 34 24 13 13 38 27 57
30 18 4 37 13 41 20 5 8 40 40 78 73 39 32 95 82 125 111 30 28 61 52 67 52 7
0 20 11 29 25 9 14 23 25 30 25 8 0 17 6 20 14 3 8 33 36 67 62 34 27 79 66
100 87 34 36 41 39 75 32 20 -3 47 -13 59 -21 12 -8 32 -14 43 -14 12 0 30 -5
40 -10 18 -9 16 -13 -20 -53 -22 -23 -40 -45 -40 -48 0 -3 -33 -40 -72 -81
-112 -115 -169 -179 -356 -406 -15 -18 -33 -39 -39 -47 -7 -7 -13 -16 -13 -19
0 -4 -11 -23 -23 -44 -13 -20 -32 -61 -41 -89 -10 -29 -21 -53 -26 -53 -8 0
-16 -20 -51 -130 -21 -65 -24 -95 -24 -227 0 -138 2 -154 21 -180 33 -44 82
-73 125 -73 67 0 274 81 287 112 2 4 22 17 45 28 95 47 133 69 146 84 7 9 19
16 26 16 7 0 19 7 26 17 8 9 33 25 56 35 23 10 51 31 62 46 43 56 83 90 177
147 30 19 106 82 157 131 12 11 32 23 44 26 28 7 132 73 191 120 87 70 97 78
126 103 16 14 34 25 40 25 6 0 22 11 36 24 64 62 82 76 100 76 18 0 18 -1 2
-32 -19 -35 -29 -49 -71 -95 -16 -18 -33 -42 -37 -55 -4 -13 -15 -29 -25 -36
-11 -7 -19 -21 -19 -30 0 -10 -11 -33 -24 -52 -13 -19 -27 -46 -31 -60 -4 -13
-16 -36 -26 -50 -30 -42 -79 -280 -79 -383 0 -62 46 -145 96 -175 34 -19 50
-22 119 -19 44 2 109 11 145 21 67 18 185 70 195 86 3 5 25 19 48 30 70 34
110 59 157 95 25 20 63 44 85 55 25 11 47 33 59 54 11 20 22 36 25 36 3 0 33
25 66 55 33 30 64 55 70 55 6 0 21 10 33 23 42 43 127 109 171 132 46 23 53 9
46 -85 -8 -109 10 -290 35 -344 11 -25 20 -49 20 -55 0 -5 22 -32 48 -60 68
-71 155 -101 296 -101 101 0 246 20 321 45 97 32 155 54 177 68 12 8 40 20 61
27 20 6 37 16 37 20 0 5 19 14 43 21 23 6 51 19 62 29 11 9 37 23 58 30 20 6
37 15 37 20 0 5 19 18 43 30 23 11 58 31 77 45 19 14 44 31 54 38 11 6 34 24
51 40 18 15 37 27 42 27 6 0 18 9 28 20 10 11 24 20 31 20 7 0 19 9 27 20 7
11 29 31 48 45 75 54 153 105 162 105 5 0 7 -55 4 -131 -8 -206 13 -301 83
-384 9 -11 20 -28 24 -38 3 -11 15 -21 25 -24 11 -3 22 -11 25 -18 7 -20 130
-56 190 -56 87 0 224 43 304 96 30 19 58 35 63 35 5 0 19 11 31 25 12 14 27
25 34 25 8 0 28 12 46 28 18 15 42 33 53 40 11 7 34 21 50 32 17 11 40 20 52
20 22 0 63 42 63 65 0 6 11 17 25 23 14 6 25 18 25 27 0 8 5 15 10 15 12 0 12
-85 1 -184 -7 -64 1 -120 25 -180 12 -30 101 -66 166 -66 94 0 280 63 339 116
8 8 21 14 27 14 6 0 19 11 30 25 11 14 25 25 32 25 7 0 27 12 46 28 18 15 52
41 75 57 44 32 83 68 136 128 18 20 42 41 53 47 11 6 20 17 20 25 0 8 6 15 14
15 8 0 32 16 53 36 21 20 65 57 98 82 61 46 129 99 152 117 7 6 35 26 64 45
28 19 72 56 99 81 26 26 57 50 68 53 11 4 27 18 36 31 8 13 49 49 91 80 41 31
75 60 75 64 0 4 24 23 53 42 28 18 76 57 106 86 29 29 58 53 63 53 5 0 22 9
36 20 91 70 177 130 185 130 5 0 21 9 35 21 75 57 113 74 160 70 15 -1 -12
-48 -40 -69 -10 -7 -18 -19 -18 -26 0 -8 -7 -16 -15 -20 -8 -3 -19 -16 -24
-28 -5 -13 -32 -48 -60 -80 -28 -31 -51 -59 -51 -63 0 -4 -12 -19 -27 -34 -16
-15 -57 -60 -93 -101 -36 -40 -80 -88 -97 -107 -18 -18 -33 -37 -33 -41 0 -4
-31 -39 -68 -79 -37 -39 -80 -87 -97 -107 -16 -20 -65 -72 -107 -117 -43 -44
-78 -83 -78 -87 0 -4 -25 -34 -55 -67 -30 -32 -55 -67 -55 -77 0 -10 -3 -18
-7 -18 -5 0 -32 -29 -61 -65 -78 -93 -85 -101 -104 -108 -26 -9 -59 -68 -52
-92 3 -11 16 -30 28 -43 21 -21 30 -23 182 -25 182 -2 178 -3 288 98 27 25 50
45 51 45 1 0 28 25 61 55 32 30 67 57 77 61 9 3 26 23 37 45 11 21 42 56 68
76 45 36 86 73 193 175 28 26 59 50 69 53 11 3 48 33 82 66 35 32 66 59 70 59
4 0 35 27 69 60 34 33 65 60 70 60 5 0 18 9 28 19 26 26 55 41 80 41 11 0 31
10 45 23 13 12 39 33 57 47 18 14 43 35 56 48 13 12 28 22 33 22 4 0 19 9 32
20 75 64 111 90 123 90 8 0 20 8 27 18 7 11 30 24 50 31 20 7 42 19 48 27 7 7
18 14 25 14 6 0 20 9 31 21 10 11 37 29 59 40 22 11 63 33 90 49 124 72 258
111 321 96 20 -5 24 -10 15 -19 -6 -6 -11 -19 -11 -29 0 -11 -11 -23 -25 -28
-14 -5 -25 -16 -25 -23 0 -17 -17 -37 -137 -160 -53 -54 -109 -105 -124 -113
-16 -8 -33 -23 -39 -34 -6 -11 -16 -20 -22 -20 -12 0 -25 -13 -174 -175 -56
-61 -109 -125 -118 -142 -9 -18 -21 -33 -26 -33 -5 0 -12 -10 -16 -22 -3 -12
-19 -39 -35 -61 -16 -22 -29 -45 -29 -50 0 -6 -6 -18 -14 -26 -27 -30 -64
-191 -65 -284 -1 -56 28 -145 65 -199 33 -47 98 -78 166 -78 111 0 301 60 371
117 16 13 35 23 43 23 7 0 19 9 26 20 7 11 19 20 26 20 15 0 132 79 132 89 0
4 18 14 39 21 24 8 44 23 52 39 20 37 77 92 143 135 31 21 61 47 67 57 5 11
16 19 24 19 8 0 20 8 27 18 7 10 28 24 46 31 18 8 53 34 78 57 25 24 47 44 51
44 3 0 16 10 28 23 21 21 142 131 228 207 22 19 47 43 56 53 9 10 26 30 39 43
41 46 19 108 -48 129 -21 7 -86 -29 -101 -56 -5 -11 -15 -19 -22 -19 -7 0 -24
-12 -38 -27 -15 -16 -50 -48 -79 -73 -29 -25 -80 -70 -114 -100 -34 -31 -72
-62 -86 -68 -51 -26 -70 -39 -114 -83 -24 -24 -65 -60 -91 -79 -25 -19 -66
-54 -90 -77 -25 -24 -49 -43 -54 -43 -20 0 -119 -75 -174 -132 -67 -71 -106
-100 -164 -127 -24 -11 -43 -24 -43 -29 0 -5 -28 -15 -62 -21 -35 -7 -73 -19
-85 -27 -12 -8 -44 -14 -71 -14 -43 0 -50 3 -62 28 -19 39 -13 73 21 107 16
17 29 37 29 43 0 13 118 132 166 167 15 11 36 29 48 41 12 12 32 27 46 34 14
7 32 19 40 27 8 7 33 27 55 43 56 43 88 69 137 116 86 83 218 235 218 252 0 5
13 29 30 53 16 24 30 51 30 60 0 9 10 28 21 43 16 20 25 56 36 138 26 185 1
265 -97 325 -48 29 -122 36 -195 19 -124 -30 -181 -48 -216 -66 -20 -11 -46
-20 -58 -20 -24 0 -150 -64 -166 -84 -5 -7 -22 -16 -37 -19 -15 -4 -39 -18
-54 -32 -15 -14 -33 -25 -40 -25 -8 0 -19 -9 -26 -20 -7 -11 -18 -20 -24 -20
-6 0 -17 -7 -25 -16 -7 -8 -31 -25 -53 -36 -40 -20 -53 -30 -99 -74 -12 -12
-32 -24 -45 -28 -12 -4 -34 -18 -50 -30 -15 -13 -42 -28 -59 -34 -18 -6 -38
-16 -45 -22 -41 -34 -92 -70 -100 -70 -5 0 -13 -10 -18 -22 -8 -21 -9 -20 -9
10 -1 19 8 47 19 62 11 16 27 48 35 71 9 23 20 48 26 55 33 40 50 209 28 288
-15 54 -82 123 -132 137 -66 18 -195 -17 -297 -80 -8 -5 -46 -24 -84 -43 -37
-18 -73 -40 -80 -48 -6 -8 -22 -21 -36 -28 -47 -24 -125 -85 -217 -169 -13
-13 -26 -23 -29 -23 -7 0 -76 -56 -118 -95 -18 -16 -66 -61 -107 -100 -111
-103 -160 -143 -229 -185 -34 -21 -68 -47 -76 -59 -9 -12 -20 -21 -26 -21 -9
0 -168 -130 -225 -184 -12 -12 -34 -30 -49 -41 -14 -11 -36 -29 -47 -40 -12
-11 -35 -29 -53 -40 -98 -62 -122 -82 -190 -157 -17 -19 -47 -42 -67 -52 -21
-9 -37 -21 -37 -26 0 -5 -10 -12 -22 -16 -13 -3 -34 -14 -48 -24 -14 -10 -41
-21 -60 -25 -19 -4 -49 -15 -66 -25 -33 -19 -46 -16 -57 12 -7 20 26 83 47 91
8 3 17 24 21 46 4 23 10 41 14 41 3 0 15 17 26 38 10 20 31 49 45 63 51 52
120 129 120 134 0 3 21 28 48 54 26 27 58 64 72 82 14 17 62 71 106 118 45 47
105 115 135 151 29 36 59 69 66 73 7 4 13 13 13 20 0 11 42 60 140 164 17 17
30 35 30 40 0 5 8 16 18 24 9 9 43 51 76 93 32 42 64 76 71 76 18 0 65 65 65
90 0 11 -12 33 -26 47 l-26 26 -156 -7 c-130 -5 -163 -10 -204 -29 -26 -12
-51 -30 -54 -39 -3 -9 -13 -20 -23 -23 -9 -3 -33 -25 -51 -50 -19 -25 -37 -45
-41 -45 -7 0 -52 66 -61 91 -4 9 -32 33 -65 55 -53 35 -66 39 -148 46 -115 9
-213 1 -294 -23 -35 -10 -77 -19 -95 -19 -17 0 -50 -9 -74 -20 -23 -10 -70
-24 -104 -30 -64 -12 -234 -75 -244 -91 -3 -5 -13 -9 -22 -9 -10 0 -33 -11
-52 -24 -19 -13 -46 -27 -59 -31 -26 -8 -156 -104 -216 -160 -21 -20 -47 -41
-57 -46 -10 -5 -18 -16 -18 -24 0 -8 -6 -15 -14 -15 -8 0 -38 -22 -67 -50 -29
-28 -57 -50 -61 -50 -5 0 -25 -15 -45 -34 -19 -18 -45 -42 -56 -52 -33 -30
-179 -143 -214 -165 -18 -11 -35 -29 -38 -40 -4 -10 -13 -19 -20 -19 -8 0 -22
-11 -31 -25 -9 -14 -22 -25 -30 -25 -7 0 -21 -11 -30 -25 -9 -14 -22 -25 -30
-25 -7 0 -27 -12 -43 -27 -51 -47 -87 -72 -113 -78 -15 -4 -36 -18 -49 -31
-12 -13 -28 -24 -35 -24 -7 0 -19 -8 -26 -18 -7 -9 -24 -22 -38 -29 -30 -13
-54 -32 -121 -94 -28 -25 -68 -52 -91 -60 -22 -7 -42 -19 -45 -26 -3 -7 -13
-13 -22 -13 -10 0 -39 -11 -66 -25 -27 -13 -83 -29 -124 -36 -42 -6 -91 -17
-110 -25 -23 -10 -75 -14 -169 -14 -129 0 -137 1 -169 26 -23 18 -33 33 -33
53 0 44 59 243 80 273 11 15 20 31 20 36 0 5 13 26 30 48 16 21 30 44 30 50 0
7 11 19 25 28 14 9 25 23 25 30 0 7 7 20 16 27 9 8 27 30 39 49 12 19 51 66
86 103 35 37 73 80 84 94 27 35 46 54 85 83 52 41 110 98 110 109 0 6 7 11 15
11 9 0 45 25 80 55 36 30 71 55 78 55 11 0 29 13 95 69 12 11 32 23 45 27 12
4 33 14 47 24 14 10 36 21 50 25 14 4 37 16 52 26 14 11 39 19 54 19 15 0 56
5 91 11 78 14 152 5 159 -19 3 -9 10 -25 15 -34 7 -15 5 -18 -13 -18 -13 0
-32 7 -42 15 -27 20 -129 20 -146 0 -6 -8 -21 -17 -33 -21 -38 -12 -115 -99
-122 -138 -12 -64 1 -101 53 -145 79 -68 190 -78 298 -26 52 25 124 86 124
106 0 6 8 17 17 24 10 7 25 44 34 81 16 63 16 76 2 146 -13 65 -21 82 -52 111
-20 20 -64 47 -98 61 -57 24 -74 26 -195 26 -73 -1 -151 -5 -173 -10 -22 -5
-78 -18 -125 -28 -47 -10 -94 -23 -105 -29 -11 -6 -45 -16 -75 -23 -30 -7 -64
-19 -75 -25 -11 -7 -38 -18 -60 -25 -22 -7 -49 -20 -60 -30 -11 -10 -33 -20
-49 -24 -16 -4 -45 -18 -65 -32 -19 -13 -41 -24 -48 -24 -7 0 -17 -9 -23 -20
-6 -11 -15 -20 -21 -20 -5 0 -33 -16 -62 -36 -52 -36 -59 -41 -110 -88 -15
-14 -30 -26 -33 -26 -3 0 -26 -21 -52 -47 -25 -27 -65 -63 -87 -82 -22 -18
-63 -54 -91 -80 -110 -99 -169 -147 -228 -183 -33 -21 -66 -45 -72 -53 -6 -8
-16 -15 -22 -15 -6 0 -17 -8 -24 -19 -7 -10 -47 -46 -88 -80 -41 -34 -84 -70
-95 -79 -11 -10 -45 -35 -75 -55 -125 -86 -190 -137 -190 -151 0 -14 -58 -61
-86 -70 -11 -3 -29 -14 -40 -24 -24 -23 -145 -82 -168 -82 -9 0 -34 -9 -56
-20 -44 -22 -106 -27 -113 -7 -8 22 21 99 47 126 14 15 26 37 26 48 0 12 8 28
18 35 10 7 27 27 37 43 11 17 25 37 32 45 7 8 25 30 40 49 15 18 58 63 94 100
74 74 189 206 189 217 0 3 33 39 73 78 39 39 86 88 102 108 17 21 50 60 75 88
25 27 59 66 75 85 17 20 59 66 95 103 36 38 83 91 105 120 24 31 53 56 73 62
37 13 52 36 52 80 0 52 -36 60 -262 60 -172 0 -197 -2 -228 -19 -19 -11 -46
-25 -59 -31 -21 -9 -115 -81 -166 -127 -12 -10 -33 -23 -48 -30 -31 -15 -227
-174 -227 -185 0 -4 -6 -8 -14 -8 -14 0 -80 -49 -121 -90 -12 -11 -26 -20 -33
-20 -6 0 -17 -9 -24 -20 -7 -11 -18 -20 -24 -20 -6 0 -33 -21 -61 -47 -71 -68
-129 -113 -146 -113 -9 0 -33 -15 -55 -32 -22 -18 -50 -40 -63 -48 -13 -8 -35
-27 -50 -42 -15 -16 -32 -28 -38 -28 -6 0 -18 -11 -27 -25 -9 -14 -21 -25 -26
-25 -6 0 -24 -11 -42 -25 -113 -92 -156 -125 -161 -125 -5 0 -117 -88 -163
-130 -12 -11 -26 -20 -29 -20 -3 0 -27 -22 -53 -50 -25 -27 -63 -56 -83 -65
-20 -8 -37 -19 -37 -24 0 -5 -35 -26 -77 -46 -43 -20 -90 -43 -105 -51 -14 -8
-43 -14 -63 -14 l-38 0 5 44 c4 33 14 53 46 85 23 24 44 52 48 64 6 20 47 73
94 122 11 12 20 26 20 32 0 6 9 14 19 18 11 3 23 15 26 26 4 11 28 42 53 69
26 26 71 73 100 103 28 30 52 57 52 60 0 3 15 20 33 39 74 78 117 127 117 133
0 4 10 18 23 30 12 13 28 29 34 37 7 7 25 24 39 38 14 14 37 41 50 60 13 19
40 55 59 80 83 109 90 126 88 227 -1 81 -5 99 -30 145 -37 70 -77 92 -160 91
-46 0 -69 -5 -83 -18 -36 -33 -130 -4 -130 40 0 4 28 6 63 5 101 -5 104 -4
148 52 40 50 41 55 37 113 -7 120 -101 182 -232 155 -76 -15 -167 -98 -186
-167 -7 -26 -17 -53 -21 -59 -5 -6 -13 -44 -19 -85 -7 -50 -16 -78 -28 -87 -9
-7 -25 -19 -35 -27 -9 -8 -21 -15 -25 -15 -4 0 -31 -22 -60 -50 -29 -27 -57
-50 -61 -50 -16 0 -89 -60 -139 -114 -18 -20 -37 -36 -42 -36 -5 0 -19 -11
-32 -24 -51 -51 -159 -136 -176 -136 -14 0 -50 -29 -97 -79 -12 -13 -151 -138
-178 -160 -10 -9 -42 -38 -71 -66 -29 -27 -65 -59 -80 -70 -39 -28 -62 -46
-131 -106 -33 -28 -74 -60 -92 -71 -17 -10 -34 -25 -37 -33 -3 -8 -12 -15 -19
-15 -8 0 -21 -7 -28 -17 -8 -9 -33 -25 -56 -35 -24 -10 -43 -23 -43 -28 0 -5
-10 -12 -22 -15 -13 -4 -36 -17 -53 -29 -16 -13 -38 -25 -48 -29 -9 -4 -21
-16 -25 -27 -8 -20 -30 -37 -82 -61 -14 -6 -52 -24 -86 -40 -34 -16 -68 -29
-76 -29 -8 0 -26 -9 -40 -19 -15 -12 -54 -24 -102 -30 -42 -6 -109 -18 -149
-26 -40 -8 -115 -15 -167 -15 -79 0 -104 4 -147 24 -55 26 -78 55 -70 90 38
154 55 196 112 271 8 11 21 32 28 47 6 16 20 31 29 34 10 3 18 11 18 17 0 7
28 42 63 78 l62 66 77 6 c42 3 85 10 96 16 12 6 49 11 84 11 88 0 225 18 273
35 22 8 69 19 105 24 36 5 83 19 105 30 21 12 51 21 66 21 28 0 223 96 269
132 16 13 47 36 69 52 23 16 43 37 46 47 3 9 14 19 24 22 10 2 21 17 25 32 4
15 17 40 29 56 37 51 37 219 -1 257 -9 10 -24 29 -33 42 -9 14 -41 39 -70 55
-50 27 -63 30 -184 33 -113 4 -138 1 -190 -17 -32 -12 -69 -21 -82 -21 -12 0
-51 -11 -85 -24 -35 -12 -84 -26 -110 -30 -25 -4 -51 -13 -58 -21 -6 -7 -33
-19 -60 -25 -28 -7 -60 -20 -72 -29 -13 -10 -45 -24 -73 -31 -63 -17 -144 -57
-151 -75 -3 -7 -15 -16 -27 -19 -12 -3 -35 -17 -51 -31 -16 -14 -33 -25 -38
-25 -5 0 -29 -20 -54 -45 -25 -24 -54 -47 -64 -50 -10 -3 -52 -38 -94 -78 -70
-65 -142 -132 -220 -201 -16 -14 -32 -26 -36 -26 -4 0 -18 -9 -31 -21 -13 -12
-50 -42 -81 -67 -32 -25 -58 -49 -58 -53 0 -5 -6 -9 -13 -9 -7 0 -24 -12 -38
-27 -36 -38 -73 -69 -164 -133 -42 -30 -81 -63 -86 -72 -5 -10 -15 -18 -23
-18 -7 0 -22 -11 -34 -25 -12 -14 -28 -25 -34 -25 -16 0 -98 -75 -98 -89 0 -6
-11 -13 -25 -17 -13 -3 -30 -12 -36 -20 -7 -8 -32 -24 -56 -35 -23 -11 -43
-23 -43 -28 0 -20 -194 -99 -270 -110 -75 -10 -100 -4 -100 26 0 26 10 40 63
91 15 15 27 32 27 38 0 7 10 25 23 41 13 15 26 36 30 46 3 9 12 17 19 17 16 0
98 75 98 90 0 5 6 10 13 10 12 0 50 28 110 83 16 15 35 27 41 27 7 0 27 13 46
30 19 16 42 29 50 30 8 0 27 12 42 28 106 106 138 142 138 151 0 6 6 11 14 11
8 0 17 8 20 18 3 10 24 38 47 62 22 24 51 64 63 89 13 25 31 60 40 76 9 17 16
36 16 44 0 8 9 34 21 58 17 36 21 64 23 156 1 110 0 113 -32 170 -19 31 -37
57 -42 57 -5 0 -17 8 -27 19 -38 38 -169 45 -247 12 -26 -12 -60 -21 -75 -21
-15 0 -50 -11 -77 -25 -27 -14 -54 -25 -60 -25 -6 0 -28 -11 -48 -25 -20 -14
-43 -25 -50 -25 -7 0 -26 -10 -41 -22 -32 -25 -71 -48 -133 -77 -23 -11 -45
-27 -48 -36 -4 -8 -12 -15 -19 -15 -8 0 -22 -11 -33 -25 -11 -14 -27 -25 -36
-25 -8 0 -31 -13 -49 -30 -19 -16 -39 -30 -44 -30 -6 0 -18 -9 -28 -20 -10
-11 -24 -20 -31 -20 -11 0 -66 -40 -116 -85 -10 -8 -24 -15 -31 -15 -13 0 -73
-46 -112 -87 -12 -13 -27 -23 -33 -23 -6 0 -21 -10 -33 -22 l-22 -23 6 43 c3
24 15 54 26 66 12 12 21 29 21 37 0 8 11 31 25 51 14 21 28 52 31 70 4 18 14
44 22 58 12 18 18 56 20 132 4 95 2 110 -18 145 -38 67 -80 87 -192 91 -81 3
-103 1 -143 -17 -26 -12 -55 -21 -64 -21 -27 0 -201 -65 -254 -95 -27 -15 -51
-34 -54 -41 -3 -8 -14 -14 -25 -14 -11 0 -36 -13 -55 -30 -18 -16 -40 -30 -48
-30 -8 0 -20 -9 -27 -20 -7 -11 -17 -20 -21 -20 -7 0 -104 -75 -117 -91 -3 -3
-16 -12 -30 -19 -25 -13 -34 -20 -81 -62 -43 -39 -108 -78 -130 -78 -16 0 -19
3 -12 13 6 6 13 29 16 51 3 21 14 47 24 58 12 13 19 43 22 101 10 135 4 189
-24 222 -14 15 -25 32 -25 36 0 5 -18 21 -40 35 -35 23 -50 26 -115 26 -52 -1
-88 -7 -119 -22 -25 -11 -50 -20 -57 -20 -7 0 -31 -11 -53 -24 -23 -13 -52
-27 -66 -31 -14 -4 -32 -14 -40 -21 -44 -40 -103 -84 -115 -84 -7 0 -18 -7
-25 -16 -8 -8 -27 -21 -44 -29 -17 -7 -53 -34 -81 -59 -27 -25 -53 -46 -57
-46 -5 0 -13 -11 -18 -25 -5 -14 -15 -25 -22 -25 -11 0 -20 -7 -82 -67 -13
-13 -27 -23 -31 -23 -4 0 -24 -14 -44 -31 -20 -17 -60 -52 -90 -78 -30 -25
-77 -67 -105 -93 -48 -45 -91 -80 -160 -131 -16 -12 -42 -34 -58 -49 -16 -16
-32 -28 -35 -28 -2 0 -28 -20 -56 -44 -29 -24 -68 -51 -87 -61 -19 -10 -39
-24 -43 -31 -4 -8 -12 -14 -18 -14 -5 0 -36 -18 -68 -40 -70 -48 -289 -160
-313 -160 -9 0 -26 -13 -38 -30 -12 -16 -28 -30 -37 -30 -8 0 -27 -9 -42 -19
-15 -11 -61 -26 -103 -35 -41 -9 -83 -18 -92 -22 -11 -4 -16 -1 -16 14 0 40
13 82 25 82 12 0 69 71 145 180 19 28 50 67 69 88 18 20 44 58 57 84 13 27 28
48 33 48 26 0 181 163 181 191 0 4 10 19 23 32 43 47 77 91 77 102 0 6 11 21
25 33 14 12 25 26 25 31 0 6 20 30 45 54 25 25 45 48 45 53 0 4 11 19 25 33
33 36 117 140 137 172 9 14 45 57 80 96 34 39 86 99 113 134 28 35 62 77 77
94 15 16 36 39 45 50 20 22 113 134 125 150 4 6 21 26 38 45 16 19 30 38 30
42 0 13 71 108 81 108 5 0 11 11 15 25 3 14 12 25 20 25 7 0 19 10 25 23 7 12
31 41 55 64 24 22 44 45 45 50 0 4 19 25 42 45 91 80 147 136 204 203 100 117
126 146 173 194 25 25 68 73 95 106 28 33 71 81 98 105 26 25 47 50 47 57 0 8
11 19 25 25 14 6 25 14 25 18 0 13 254 279 533 559 70 71 127 132 127 138 0
12 106 123 119 123 10 0 65 44 90 73 9 10 47 49 85 85 38 37 123 120 189 185
66 65 132 125 147 133 14 9 35 27 46 41 24 30 87 93 137 136 29 26 40 43 44
74 8 58 -18 73 -117 72 -41 -1 -86 -4 -100 -6z m-277 -313 c-9 -16 -22 -30
-28 -30 -5 0 -50 -41 -100 -92 -49 -50 -112 -108 -140 -129 -78 -60 -100 -79
-183 -155 -126 -118 -143 -136 -174 -191 -16 -29 -34 -53 -38 -53 -5 0 -31
-21 -58 -47 -27 -27 -68 -64 -91 -83 -22 -19 -41 -40 -41 -46 0 -6 -9 -14 -20
-17 -11 -3 -23 -13 -27 -22 -8 -22 -105 -120 -133 -135 -11 -6 -20 -17 -20
-25 0 -8 -4 -15 -9 -15 -16 0 -147 -134 -176 -180 -15 -24 -40 -54 -53 -64
-41 -32 -92 -86 -160 -166 -34 -41 -74 -87 -87 -103 -14 -15 -25 -32 -25 -37
0 -6 -9 -10 -19 -10 -11 0 -22 -9 -26 -19 -3 -10 -19 -24 -36 -31 -37 -16
-207 -194 -215 -226 -3 -13 -13 -24 -21 -24 -12 0 -55 -40 -100 -94 -7 -8 -16
-16 -20 -17 -4 -2 -33 -33 -63 -69 -30 -35 -74 -83 -97 -107 -24 -23 -43 -46
-43 -52 0 -6 -11 -18 -25 -27 -13 -8 -32 -28 -42 -44 -18 -28 -77 -100 -123
-150 -14 -15 -56 -62 -95 -104 -38 -43 -88 -94 -109 -114 -21 -20 -44 -43 -50
-50 -39 -46 -136 -150 -223 -241 -57 -58 -103 -111 -103 -118 0 -7 -9 -17 -21
-23 -11 -7 -29 -20 -40 -31 -10 -10 -25 -19 -32 -19 -7 0 -33 -24 -58 -52 -24
-29 -81 -91 -126 -138 -117 -121 -173 -184 -173 -195 0 -5 -9 -18 -20 -30 -11
-11 -35 -37 -55 -57 -20 -21 -38 -38 -40 -38 -13 0 -3 106 15 152 11 28 22 79
25 112 3 34 13 111 21 171 15 109 14 325 -2 520 -6 79 -5 81 24 111 16 17 60
56 98 87 38 31 89 79 114 106 25 27 70 77 100 110 30 34 69 68 85 76 64 32 97
57 165 125 38 38 73 70 76 70 3 0 27 23 53 50 26 28 52 50 59 50 6 0 17 9 24
20 7 11 17 20 22 20 5 0 39 28 75 61 104 97 166 152 200 179 17 14 42 34 55
45 13 11 41 34 62 50 20 17 62 54 92 83 31 28 59 52 63 52 5 0 21 12 36 26 59
54 70 63 131 109 35 26 78 63 96 81 18 19 38 34 44 34 6 0 16 9 22 20 6 11 16
20 21 20 6 0 37 23 69 50 32 28 63 50 69 50 14 0 131 79 131 88 0 4 24 23 53
42 57 38 157 116 198 155 14 14 31 25 37 25 6 0 18 11 27 23 8 13 32 29 54 35
26 8 43 22 55 44 18 32 95 98 115 98 10 0 41 24 92 73 16 15 35 27 43 27 7 0
23 11 36 25 13 14 29 25 35 25 6 0 29 13 51 30 21 16 45 30 51 30 7 0 39 19
70 43 63 46 97 66 159 97 23 11 47 27 54 35 7 8 17 15 23 15 5 0 25 11 43 25
18 14 41 25 52 25 11 0 35 11 55 24 20 14 53 28 74 31 50 8 93 25 93 36 0 5 9
9 21 9 20 0 20 -1 2 -30z m-4631 -1471 c68 -8 120 -19 153 -35 28 -13 84 -38
125 -55 41 -17 79 -38 83 -45 4 -8 13 -14 20 -14 7 0 32 -16 56 -35 24 -19 48
-35 52 -35 5 0 9 -5 9 -11 0 -6 11 -20 25 -31 14 -11 25 -24 25 -29 0 -9 70
-100 127 -165 10 -11 26 -37 35 -57 10 -20 22 -37 27 -37 5 0 12 -12 15 -26 4
-15 18 -43 32 -63 13 -19 24 -41 24 -47 0 -6 8 -22 19 -35 33 -43 89 -264 90
-358 1 -43 -2 -48 -66 -107 -38 -35 -90 -84 -117 -109 -26 -25 -52 -45 -57
-45 -5 0 -16 -11 -25 -25 -9 -14 -21 -25 -26 -25 -5 0 -22 -12 -37 -27 -15
-16 -42 -39 -60 -53 -107 -82 -131 -103 -131 -111 0 -5 -6 -9 -13 -9 -7 0 -24
-12 -38 -27 -33 -35 -75 -69 -118 -97 -19 -11 -42 -25 -50 -31 -35 -21 -169
-126 -181 -140 -7 -8 -18 -15 -26 -15 -7 0 -16 -9 -19 -20 -3 -11 -16 -25 -28
-31 -12 -7 -29 -18 -37 -26 -48 -46 -152 -113 -174 -113 -16 0 -38 13 -61 38
-20 20 -44 46 -55 57 -11 12 -20 25 -20 31 0 6 -9 19 -21 30 -12 10 -37 44
-57 74 -19 30 -44 64 -53 75 -65 72 -117 147 -125 181 -4 16 -17 49 -30 74
-39 76 -74 158 -74 174 0 8 -9 39 -19 68 -12 31 -27 120 -36 213 -32 302 4
599 86 703 10 14 19 32 19 41 0 10 11 32 25 51 14 19 25 39 25 44 0 6 28 36
62 66 34 30 72 64 84 76 12 12 41 29 65 38 24 10 50 23 57 29 18 15 149 34
239 36 40 0 119 -4 175 -10z m974 -1380 c16 -65 17 -192 4 -314 -5 -49 -15
-144 -20 -209 -6 -66 -17 -131 -25 -147 -8 -15 -19 -60 -25 -101 -6 -40 -20
-95 -30 -123 -9 -27 -21 -69 -25 -92 -3 -23 -13 -47 -20 -53 -8 -6 -19 -28
-25 -48 -6 -20 -20 -53 -30 -72 -10 -19 -21 -52 -25 -72 -6 -31 -12 -38 -37
-43 -41 -9 -108 2 -154 25 -21 11 -48 20 -60 20 -12 0 -38 14 -59 30 -21 17
-44 30 -52 30 -8 0 -28 9 -44 21 -16 11 -46 23 -66 26 -21 3 -47 14 -58 24
-11 10 -31 22 -45 27 -14 5 -56 30 -94 56 -38 25 -74 46 -81 46 -6 0 -21 10
-33 23 -11 12 -37 36 -56 52 -40 34 -49 81 -19 92 10 4 38 27 63 51 25 24 58
50 73 58 15 8 37 23 47 32 10 9 33 28 51 42 18 14 52 44 76 67 24 22 57 46 74
52 18 6 42 21 54 33 44 46 127 113 151 123 13 6 33 20 44 30 50 50 218 196
275 240 22 17 62 53 90 82 27 28 54 50 59 49 6 -1 15 -27 22 -57z m13721 -95
c71 -32 50 -152 -57 -313 -19 -29 -42 -64 -50 -78 -8 -14 -31 -42 -50 -62 -19
-20 -48 -55 -63 -78 -28 -40 -212 -230 -331 -340 -31 -28 -86 -69 -123 -89
-73 -41 -172 -116 -187 -143 -26 -45 -79 -85 -173 -130 -24 -11 -43 -24 -43
-30 0 -5 -16 -12 -35 -15 -19 -4 -54 -16 -77 -26 -64 -29 -131 -26 -175 7 -33
26 -35 30 -30 73 3 25 12 59 20 75 8 17 20 52 27 80 6 27 20 58 31 68 10 10
19 24 19 32 0 8 14 30 30 48 17 19 30 40 30 46 0 6 6 14 14 17 8 3 21 22 29
42 8 20 24 46 36 56 12 11 21 25 21 33 0 7 6 16 14 19 8 3 36 33 62 67 48 62
308 323 362 364 16 12 41 25 56 29 14 3 32 14 39 24 6 9 22 22 34 29 12 6 34
23 49 36 15 14 31 25 35 25 5 0 9 7 9 15 0 8 7 15 15 15 20 0 85 32 85 42 0 4
7 8 15 8 9 0 35 10 58 22 46 25 207 57 247 50 14 -2 39 -10 57 -18z m-6702 6
c33 -12 39 -29 31 -85 -5 -31 -13 -46 -27 -50 -10 -4 -19 -12 -19 -19 0 -11
-56 -66 -146 -143 -12 -10 -47 -30 -78 -45 -31 -15 -80 -38 -109 -52 -28 -14
-74 -30 -101 -36 -26 -6 -60 -17 -75 -25 -16 -8 -79 -21 -142 -30 -63 -9 -129
-19 -146 -22 -29 -4 -33 -2 -33 16 0 13 20 43 48 70 26 27 62 63 79 82 50 52
80 77 102 84 11 3 23 15 26 26 4 10 12 19 20 19 14 0 118 68 123 81 2 4 23 17
48 29 24 12 44 25 44 30 0 4 15 10 32 14 18 4 51 15 73 26 71 34 199 49 250
30z m-4418 -412 c-3 -8 -6 -5 -6 6 -1 11 2 17 5 13 3 -3 4 -12 1 -19z"/>
<path d="M15662 17143 c-27 -10 -48 -24 -54 -39 -6 -13 -15 -24 -19 -24 -20 0
-39 -62 -38 -122 1 -77 5 -88 48 -124 30 -25 42 -28 101 -28 55 0 74 4 102 24
95 64 123 194 61 278 -13 17 -33 32 -43 32 -10 0 -22 5 -25 10 -9 14 -82 10
-133 -7z"/>
<path d="M921 14117 c-74 -53 -68 -199 10 -226 46 -16 21911 -16 21942 0 42
22 66 61 67 107 0 55 -23 95 -69 118 -35 17 -436 18 -10978 20 l-10941 2 -31
-21z"/>
<path d="M899 13571 c-25 -25 -29 -37 -29 -85 0 -70 15 -102 53 -116 35 -12
21889 -14 21946 -2 25 6 38 17 55 48 30 56 24 102 -19 148 l-33 36 -10972 0
-10972 0 -29 -29z"/>
<path d="M7458 12830 c-26 -5 -51 -11 -56 -14 -5 -3 -44 -12 -88 -21 -43 -9
-86 -23 -94 -30 -8 -7 -29 -16 -46 -19 -18 -4 -40 -16 -50 -27 -9 -10 -23 -19
-29 -19 -28 0 -175 -115 -175 -137 0 -6 -9 -15 -20 -18 -11 -3 -23 -17 -26
-31 -3 -13 -10 -24 -15 -24 -5 0 -19 -20 -32 -44 -12 -24 -39 -77 -60 -117
-30 -58 -41 -97 -53 -179 -21 -141 -5 -341 35 -418 10 -20 27 -55 38 -76 33
-71 51 -102 67 -115 9 -8 16 -20 16 -28 0 -8 11 -25 25 -39 14 -14 32 -40 39
-59 8 -18 27 -41 43 -51 15 -10 41 -28 56 -41 16 -13 37 -23 47 -23 11 0 36
-11 56 -25 20 -14 42 -25 49 -25 7 0 18 -7 25 -15 7 -8 36 -21 64 -29 172 -46
260 -55 356 -36 129 26 187 43 206 61 11 10 30 19 41 19 12 0 35 11 51 25 17
14 37 25 45 25 9 0 24 11 35 25 11 14 24 25 30 25 16 0 70 54 77 77 3 13 15
33 25 45 10 13 33 39 49 59 17 20 31 44 31 53 0 9 5 16 10 16 6 0 14 10 19 23
5 12 18 43 29 67 28 63 31 74 46 198 12 94 12 130 0 234 -20 185 -35 221 -154
392 -22 31 -126 136 -135 136 -7 0 -36 22 -93 70 -13 11 -29 20 -35 20 -7 0
-33 11 -59 25 -25 13 -66 27 -90 31 -23 3 -65 12 -93 19 -69 18 -151 24 -207
15z m222 -347 c41 -14 84 -35 96 -45 11 -10 24 -18 29 -18 10 0 125 -118 125
-129 0 -3 11 -22 23 -41 13 -19 34 -78 45 -130 l22 -95 -21 -109 c-12 -67 -28
-119 -40 -134 -10 -14 -19 -31 -19 -39 0 -7 -15 -29 -32 -48 -18 -19 -38 -40
-45 -47 -18 -20 -65 -57 -104 -82 -24 -16 -66 -27 -133 -36 -170 -24 -302 13
-412 114 -30 27 -65 68 -79 92 -14 23 -35 51 -48 61 -18 14 -26 35 -35 98 -15
100 -15 147 0 237 10 62 16 76 49 107 20 20 44 50 52 66 29 55 136 144 200
165 22 7 51 18 65 26 47 24 176 18 262 -13z"/>
<path d="M22240 12830 c-106 -18 -205 -65 -258 -122 -107 -116 -103 -107 -132
-240 -23 -102 1 -281 45 -332 14 -16 25 -32 25 -35 0 -13 76 -87 115 -113 22
-15 54 -30 70 -33 17 -4 48 -15 70 -26 22 -10 65 -21 95 -25 59 -8 117 -39
167 -92 25 -27 32 -44 37 -95 8 -69 -2 -108 -37 -145 -30 -32 -105 -65 -144
-64 -44 2 -143 31 -143 43 0 5 -11 18 -24 30 -14 12 -26 37 -30 61 -4 25 -18
51 -36 69 -27 27 -33 29 -112 29 -96 0 -128 -13 -140 -55 -11 -41 9 -180 33
-226 10 -21 19 -45 19 -53 0 -23 123 -156 144 -156 4 0 21 -11 38 -25 16 -14
37 -25 46 -25 9 0 31 -8 47 -17 24 -13 55 -16 154 -14 68 1 129 5 135 10 6 5
30 14 54 21 24 6 51 20 60 31 9 10 24 19 34 19 40 0 138 118 138 165 0 19 6
35 14 38 8 3 20 25 26 49 6 24 18 61 28 83 27 62 23 182 -10 276 -36 104 -65
145 -173 248 -12 11 -34 23 -50 27 -17 4 -39 17 -51 29 -13 14 -39 25 -70 30
-27 4 -61 13 -76 21 -16 8 -50 19 -77 24 -30 6 -59 19 -75 35 -14 14 -30 25
-36 25 -6 0 -10 26 -10 64 0 55 4 68 31 102 24 32 40 41 82 50 95 19 128 2
183 -98 30 -53 73 -76 161 -85 42 -5 57 -2 81 16 17 11 35 21 41 21 26 0 24
121 -3 165 -7 11 -18 39 -24 63 -7 23 -17 42 -23 42 -5 0 -15 12 -22 28 -14
33 -19 38 -80 84 -26 20 -62 40 -80 43 -18 4 -50 13 -72 20 -57 18 -132 24
-185 15z"/>
<path d="M1231 12815 c-18 -8 -41 -15 -50 -15 -26 0 -133 -73 -171 -118 -75
-85 -83 -98 -95 -142 -45 -155 -31 -327 32 -403 13 -16 23 -32 23 -36 0 -9 76
-91 85 -91 3 0 21 -11 38 -24 18 -13 48 -27 67 -31 19 -4 50 -16 69 -26 19
-10 55 -21 80 -25 25 -4 57 -14 71 -23 14 -9 37 -22 51 -28 19 -8 33 -29 53
-77 33 -83 33 -106 -1 -173 -28 -58 -40 -66 -120 -81 -105 -19 -188 30 -212
125 -16 62 -58 93 -129 95 -145 3 -152 -2 -152 -131 0 -82 4 -103 25 -146 13
-27 25 -62 25 -77 0 -17 7 -29 18 -33 11 -3 24 -17 30 -30 6 -14 17 -25 23
-25 6 0 20 -11 31 -25 11 -14 25 -25 33 -25 7 0 18 -6 25 -14 6 -8 48 -29 92
-45 97 -37 176 -41 268 -11 34 11 68 20 74 20 7 0 27 11 46 25 19 14 43 25 54
25 11 0 29 9 41 19 11 11 39 38 63 60 23 21 42 46 42 54 0 8 11 35 25 58 14
24 25 59 25 77 0 18 8 45 17 59 25 37 24 224 0 270 -9 18 -17 43 -17 56 0 54
-158 222 -219 233 -20 3 -52 17 -71 30 -20 13 -58 27 -85 30 -28 4 -67 15 -87
25 -21 11 -44 19 -52 19 -8 0 -28 11 -43 25 -15 14 -34 30 -42 36 -22 19 -7
144 22 179 19 24 32 29 93 35 43 4 79 3 90 -3 10 -5 31 -36 48 -67 41 -77 67
-94 159 -107 72 -10 79 -10 122 13 28 15 48 33 52 47 9 38 -2 130 -19 149 -9
10 -19 33 -23 50 -3 18 -15 39 -24 45 -10 7 -21 23 -25 36 -4 12 -17 32 -29
43 -26 24 -109 65 -152 74 -16 4 -49 13 -73 21 -55 18 -178 17 -221 -1z"/>
<path d="M2505 12794 c-11 -3 -29 -7 -40 -9 -12 -2 -31 -22 -43 -43 l-22 -39
0 -702 c0 -674 1 -703 19 -739 35 -69 15 -65 424 -66 388 0 404 2 427 44 6 10
13 59 16 108 8 101 -8 150 -54 172 -25 12 -180 19 -439 20 l-73 0 0 154 c0
125 3 155 14 159 8 3 113 7 233 7 306 2 331 16 321 177 -5 69 -8 79 -33 99
-39 31 -61 33 -292 33 -126 0 -210 4 -223 11 -19 10 -20 21 -20 149 0 183 -17
171 254 170 222 0 267 4 290 29 8 10 19 51 25 93 9 64 8 83 -5 117 -10 24 -25
43 -38 47 -24 8 -711 16 -741 9z"/>
<path d="M4025 12793 c-11 -2 -30 -6 -41 -8 -12 -3 -32 -22 -44 -42 l-23 -38
0 -711 c0 -644 2 -713 17 -742 21 -41 45 -50 133 -53 99 -2 102 -2 134 30 l29
29 0 476 c0 311 3 476 10 476 6 0 10 -4 10 -9 0 -6 10 -22 23 -36 12 -14 32
-38 44 -53 12 -15 35 -43 51 -62 16 -19 32 -45 36 -58 4 -12 16 -27 27 -32 10
-6 19 -17 19 -24 0 -7 9 -24 21 -37 11 -13 27 -40 35 -59 8 -19 18 -37 23 -40
4 -3 24 -30 44 -60 20 -30 45 -66 54 -80 10 -14 26 -42 35 -62 9 -21 22 -38
28 -38 5 0 10 -6 10 -14 0 -7 13 -30 29 -50 16 -20 33 -51 36 -68 4 -17 20
-49 36 -72 16 -22 37 -52 46 -66 9 -14 32 -40 52 -57 35 -32 38 -33 129 -33
104 0 125 7 147 50 22 43 23 1456 0 1499 -18 35 -37 41 -147 41 -74 0 -91 -3
-105 -19 -49 -53 -46 -30 -45 -459 0 -242 -3 -413 -9 -424 -14 -26 -25 -22
-39 12 -7 17 -30 48 -51 70 -21 22 -41 51 -45 64 -3 13 -14 32 -25 42 -10 9
-19 22 -19 27 0 6 -11 24 -24 42 -13 17 -31 48 -40 68 -8 20 -19 37 -25 37 -5
0 -14 12 -20 28 -12 29 -51 87 -76 113 -8 9 -15 20 -15 25 0 5 -11 23 -25 39
-13 17 -34 49 -46 73 -12 24 -32 48 -45 54 -22 10 -46 41 -85 108 -27 48 -78
92 -117 101 -38 9 -111 10 -147 2z"/>
<path d="M9030 12791 c-70 -6 -90 -14 -90 -35 0 -8 -7 -19 -15 -26 -14 -11
-15 -100 -15 -723 1 -684 2 -711 20 -748 11 -21 29 -43 39 -49 31 -16 177 -12
212 6 53 27 58 55 54 307 -2 125 0 229 4 231 12 8 51 -23 51 -40 0 -8 16 -31
35 -52 56 -60 65 -72 74 -95 5 -12 30 -49 55 -81 25 -33 46 -66 46 -74 0 -18
59 -108 92 -140 76 -74 69 -72 218 -72 120 0 139 2 153 18 26 29 21 81 -13
131 -17 24 -30 52 -30 61 0 25 -38 70 -60 70 -11 0 -22 10 -26 23 -4 12 -26
40 -49 62 -23 22 -48 57 -56 78 -7 21 -28 53 -45 72 -49 54 -51 76 -6 97 82
39 252 154 252 172 0 7 10 26 22 41 20 26 39 86 59 191 27 135 -64 404 -144
430 -25 8 -89 48 -130 81 -16 13 -36 23 -46 23 -10 0 -31 6 -47 14 -62 31
-408 46 -614 27z m445 -311 c39 -11 73 -20 76 -20 14 0 90 -67 114 -99 17 -24
25 -48 25 -77 0 -49 -45 -154 -66 -154 -8 0 -17 -7 -20 -15 -17 -44 -220 -94
-313 -78 -36 7 -46 13 -52 34 -3 14 -6 110 -5 212 1 174 2 187 21 201 28 22
135 20 220 -4z"/>
<path d="M11763 12790 c-36 -4 -60 -13 -75 -28 l-23 -23 0 -732 c0 -681 1
-735 17 -760 28 -42 49 -47 190 -50 226 -5 398 7 446 32 23 12 48 21 55 21 8
0 32 13 53 30 22 16 55 42 76 57 28 22 40 41 52 85 9 31 21 58 27 60 5 2 17
30 25 63 9 32 22 68 30 79 19 28 18 142 -2 181 -8 16 -20 51 -25 76 -6 26 -19
55 -30 65 -10 9 -19 22 -19 29 0 6 -14 24 -31 41 -54 51 -54 57 -12 142 34 70
38 86 41 172 2 53 -1 119 -8 150 -15 66 -62 143 -116 188 -21 18 -48 41 -59
52 -11 11 -36 23 -55 26 -19 4 -47 13 -62 20 -56 29 -335 42 -495 24z m376
-316 l79 -26 13 -67 c12 -71 1 -141 -24 -141 -6 0 -21 -10 -35 -22 -20 -20
-37 -23 -118 -26 l-94 -4 0 144 0 144 28 11 c42 17 65 15 151 -13z m98 -607
c67 -68 77 -81 84 -121 24 -124 -40 -198 -183 -211 -42 -4 -99 -4 -127 0 l-51
7 0 179 0 179 123 0 122 0 32 -33z"/>
<path d="M13317 12791 c-39 -4 -63 -12 -72 -24 -22 -30 -26 -212 -20 -865 6
-674 6 -682 53 -697 34 -10 745 -8 772 2 40 17 60 47 67 101 9 82 -5 159 -35
193 l-27 30 -249 3 c-229 2 -250 4 -262 21 -10 14 -14 56 -14 156 0 133 1 137
23 143 12 3 117 6 232 6 116 0 227 5 247 10 20 6 49 25 63 42 25 30 27 37 23
111 -3 71 -6 81 -30 102 -38 33 -127 45 -334 45 -138 1 -183 4 -198 15 -15 12
-19 32 -22 138 -4 114 -3 126 16 150 l21 27 212 1 c252 0 283 4 310 41 25 34
34 130 17 182 -23 71 -24 71 -400 72 -184 1 -361 -1 -393 -5z"/>
<path d="M16743 12792 c-75 -7 -96 -20 -108 -67 -3 -11 -4 -344 -3 -740 3
-702 4 -721 23 -747 11 -15 27 -30 35 -32 20 -7 221 -10 523 -8 305 2 290 -5
301 145 8 114 -6 160 -51 178 -16 7 -114 12 -233 14 -113 2 -213 3 -222 4 -26
2 -33 37 -33 179 0 123 1 133 20 139 11 3 109 5 219 4 183 -2 202 0 241 19 51
25 65 55 65 141 0 116 -33 143 -175 144 -234 1 -332 6 -348 18 -13 10 -17 37
-22 142 -8 185 -27 172 261 177 126 3 237 8 246 12 23 10 29 29 35 112 7 82
-8 139 -40 156 -25 13 -612 21 -734 10z"/>
<path d="M18224 12790 c-18 -6 -36 -18 -40 -28 -10 -20 -18 -1383 -9 -1461 5
-37 14 -61 30 -77 22 -22 32 -24 124 -24 149 0 141 -20 141 351 l0 298 33 6
c17 3 118 6 222 8 172 2 193 4 217 22 75 55 76 213 3 261 -24 16 -53 18 -226
19 -143 0 -202 4 -211 13 -6 6 -17 12 -23 12 -7 0 -12 44 -13 130 -3 125 -2
131 21 154 23 23 28 24 213 25 104 1 206 6 226 12 32 8 38 15 51 57 24 83 7
192 -35 218 -18 11 -688 15 -724 4z"/>
<path d="M20597 12791 c-69 -6 -81 -10 -102 -36 -22 -24 -25 -38 -25 -99 0
-59 4 -78 24 -107 23 -33 30 -37 100 -48 42 -7 80 -10 86 -6 5 3 23 -1 40 -10
l30 -16 0 -583 c0 -321 3 -597 6 -614 13 -63 32 -72 157 -72 73 1 117 5 127
13 46 38 45 14 50 666 l5 616 108 6 c138 8 143 12 152 129 5 71 3 91 -12 120
-15 30 -24 36 -62 41 -62 8 -591 8 -684 0z"/>
<path d="M5871 12771 c-41 -41 -42 -66 -39 -786 l3 -690 25 -45 25 -45 90 -3
c98 -3 136 7 160 44 14 22 16 102 15 762 0 724 -1 737 -20 757 -18 17 -36 20
-129 23 -99 3 -111 2 -130 -17z"/>
<path d="M14770 12770 c-20 -20 -20 -34 -21 -617 0 -329 -1 -627 -1 -663 -1
-221 1 -240 27 -265 22 -23 32 -25 115 -25 50 0 100 5 111 10 10 6 27 27 37
48 19 39 20 110 8 614 -4 199 5 287 32 296 6 2 18 -13 26 -32 8 -20 19 -36 23
-36 4 0 19 -18 33 -40 13 -22 28 -40 32 -40 4 0 8 -9 8 -19 0 -11 11 -28 25
-39 14 -11 25 -25 25 -32 0 -20 71 -120 86 -120 8 0 20 -11 26 -25 6 -14 15
-25 19 -25 5 0 16 -17 24 -37 9 -21 24 -47 34 -58 10 -11 22 -30 26 -42 3 -13
10 -23 16 -23 5 0 15 -15 22 -32 8 -18 21 -39 30 -47 10 -7 17 -19 17 -25 0
-7 11 -27 24 -45 14 -19 28 -46 31 -62 4 -16 14 -35 23 -41 9 -7 24 -26 32
-43 8 -16 30 -47 50 -67 l35 -38 96 0 c119 0 141 13 165 98 14 47 15 65 5 100
-6 24 -8 48 -5 54 9 15 5 1187 -4 1258 -9 71 -26 80 -153 80 -81 0 -101 -3
-120 -19 l-24 -19 3 -349 c3 -371 -4 -585 -19 -545 -5 12 -15 25 -23 28 -9 3
-18 14 -21 25 -4 10 -12 25 -19 31 -20 21 -86 117 -86 126 0 5 -9 17 -21 28
-12 10 -30 36 -40 57 -11 20 -23 37 -28 37 -4 0 -13 17 -19 39 -8 26 -24 47
-52 66 -22 15 -40 31 -40 35 0 4 -11 19 -24 33 -13 14 -40 60 -61 102 -21 42
-44 79 -52 82 -7 3 -13 11 -13 19 0 7 -9 19 -21 27 -11 8 -30 32 -41 53 -11
22 -23 41 -27 44 -4 3 -12 17 -18 33 -23 52 -65 67 -185 67 -95 0 -110 -2
-128 -20z"/>
<path d="M19698 12783 c-9 -2 -23 -19 -32 -38 -14 -29 -16 -116 -16 -752 0
-650 2 -721 16 -743 31 -46 43 -50 145 -50 l97 0 31 35 31 36 0 720 c0 772 1
762 -49 789 -19 10 -188 12 -223 3z"/>
<path d="M899 10851 l-29 -29 0 -131 c0 -130 0 -131 29 -163 l29 -33 10919 -3
c6005 -2 10943 0 10973 4 46 5 61 12 93 45 l39 39 -4 102 c-3 89 -7 108 -28
140 -14 20 -35 42 -48 48 -16 7 -3360 10 -10983 10 l-10961 0 -29 -29z"/>
<path d="M903 9836 l-28 -24 -3 -380 c-2 -233 1 -389 7 -405 14 -36 67 -63 95
-47 48 26 60 59 66 177 3 61 8 114 10 117 3 3 40 9 82 14 42 6 87 17 100 26
12 9 30 16 39 16 9 0 35 18 58 40 22 22 41 39 42 37 0 -1 4 -54 8 -117 6 -94
12 -125 33 -170 45 -93 83 -128 163 -150 86 -24 121 -25 193 -4 36 11 74 15
109 11 49 -5 57 -3 85 22 l32 28 -2 194 c-1 236 14 304 51 230 11 -22 15 -73
16 -203 2 -237 12 -268 88 -268 66 0 73 23 73 256 1 174 3 188 22 215 16 22
30 29 54 29 28 0 33 -4 40 -32 4 -18 7 -111 6 -207 l-1 -174 29 -42 c33 -48
45 -55 83 -48 58 11 62 24 67 272 l5 226 26 3 c36 4 39 -10 39 -225 0 -101 5
-194 10 -209 16 -42 48 -64 91 -64 31 0 42 5 56 27 16 24 18 54 17 288 -3 571
1 536 -61 554 -26 8 -37 5 -65 -15 -42 -31 -49 -51 -39 -111 9 -61 5 -73 -24
-73 -46 0 -55 10 -55 59 0 96 -27 140 -87 141 -49 0 -84 -57 -95 -154 -4 -35
-26 -51 -59 -43 -42 12 -49 22 -56 87 -8 78 -35 113 -85 108 -45 -4 -71 -44
-76 -118 -4 -59 -5 -59 -48 -81 -29 -14 -53 -19 -70 -15 -35 9 -91 -11 -106
-37 -8 -14 -14 -88 -16 -207 -4 -181 -4 -186 -30 -220 -14 -19 -31 -38 -36
-42 -17 -12 -114 -9 -122 3 -3 6 -21 17 -39 25 -42 17 -45 34 -45 243 0 147
-2 170 -20 198 -26 44 -54 57 -91 44 -25 -9 -31 -8 -36 7 -27 82 -102 172
-142 172 -9 0 -29 9 -46 20 -26 17 -47 20 -157 20 -120 0 -128 -1 -155 -24z
m285 -198 c41 -51 45 -113 9 -145 -27 -23 -85 -36 -120 -28 -21 6 -25 13 -30
64 -2 32 -3 79 0 105 l6 46 51 -1 c47 0 53 -3 84 -41z"/>
<path d="M7186 9839 c-14 -11 -30 -29 -36 -38 -5 -10 -12 -87 -16 -172 -3 -85
-10 -160 -14 -167 -5 -10 -25 7 -66 56 -36 43 -74 77 -99 88 -22 10 -48 25
-59 33 -28 24 -226 23 -253 -1 -25 -23 -81 -23 -105 -1 -42 38 -108 -22 -116
-106 -2 -28 -6 -51 -8 -51 -3 0 -17 14 -32 31 -48 56 -96 99 -117 105 -11 4
-27 12 -35 19 -42 36 -230 37 -269 1 -10 -9 -22 -16 -27 -16 -15 0 -108 -80
-121 -104 -12 -23 -63 -52 -63 -36 0 10 -16 26 -55 55 -15 11 -39 32 -53 46
-53 53 -117 73 -227 74 -89 0 -104 -2 -129 -22 -16 -13 -36 -23 -44 -23 -22 0
-80 -46 -87 -70 -3 -11 -12 -20 -20 -20 -7 0 -19 -16 -25 -35 l-11 -35 -40 48
c-75 90 -98 111 -126 118 -15 4 -36 14 -47 23 -28 24 -226 23 -253 -1 -24 -22
-59 -23 -107 -3 -36 15 -36 15 -74 -19 l-37 -34 -2 -359 -2 -359 34 -38 c30
-34 37 -38 68 -32 53 10 71 37 75 117 5 78 10 81 87 54 46 -17 124 -19 157 -5
13 5 41 14 63 19 22 6 54 23 70 39 33 30 111 119 124 141 7 10 11 8 16 -10 17
-55 138 -157 208 -174 15 -4 30 -11 33 -16 9 -15 117 -10 170 8 45 15 79 36
129 81 11 10 39 30 63 45 41 27 42 29 44 85 l2 57 3 -48 c3 -39 8 -50 28 -57
13 -5 26 -18 30 -29 3 -12 9 -21 13 -21 4 0 31 -22 60 -48 45 -41 64 -51 125
-65 156 -37 214 -15 375 141 12 12 24 22 26 22 2 0 6 -64 9 -142 7 -136 8
-143 34 -170 34 -35 59 -35 101 1 31 26 34 35 37 90 2 33 6 65 10 71 4 6 25 2
58 -10 29 -11 72 -20 97 -20 65 0 157 26 194 55 72 57 106 89 107 99 0 6 13
21 29 34 l29 23 6 -38 c18 -116 45 -150 112 -140 56 9 66 26 71 116 5 82 15
104 25 53 10 -48 142 -159 221 -185 66 -23 123 -21 204 5 56 18 77 31 129 84
64 65 85 114 65 150 -7 13 -3 27 19 57 34 48 37 94 9 152 -11 22 -20 45 -20
50 -1 17 -56 93 -86 118 -16 13 -40 28 -54 32 -14 4 -33 15 -44 24 -14 12 -40
16 -120 16 -90 0 -107 -3 -159 -28 -73 -35 -132 -94 -168 -166 l-18 -36 -1
171 c0 95 -5 185 -11 202 -6 19 -23 36 -44 46 -41 20 -37 20 -69 -5z m-2385
-359 c14 0 38 -11 53 -25 15 -14 31 -25 36 -25 12 0 40 -88 40 -129 0 -55 -30
-129 -54 -135 -12 -3 -32 -15 -44 -26 -33 -31 -130 -32 -150 -1 -8 11 -20 21
-26 21 -21 0 -66 107 -66 155 0 88 92 183 165 169 11 -2 32 -4 46 -4z m1389
-12 c8 -6 27 -28 43 -49 24 -34 27 -49 27 -114 0 -79 1 -76 -66 -149 -31 -34
-37 -36 -93 -36 -57 0 -61 2 -111 49 l-52 49 3 95 c4 93 4 95 39 127 19 18 49
37 65 41 35 9 122 1 145 -13z m675 -6 c6 -9 21 -27 35 -40 22 -21 25 -34 28
-111 l4 -88 -50 -50 c-80 -81 -145 -81 -227 1 l-50 50 -4 79 -3 79 50 48 c54
52 81 61 162 53 26 -3 49 -12 55 -21z m-1358 2 c3 -8 17 -20 30 -25 14 -5 23
-15 20 -22 -3 -9 -39 -12 -131 -13 -141 0 -158 7 -115 50 21 21 34 24 107 25
67 1 84 -2 89 -15z m2243 -6 c17 -12 30 -30 30 -41 0 -18 -7 -19 -124 -16 -68
2 -127 7 -131 11 -4 4 3 20 16 37 23 29 28 30 102 30 65 1 83 -3 107 -21z
m-2182 -233 c10 -10 -23 -56 -57 -78 -56 -38 -138 -38 -186 -2 -30 24 -52 66
-41 83 4 6 277 4 284 -3z m2224 -25 c-32 -52 -85 -80 -153 -80 -55 0 -63 3
-94 34 -19 18 -35 43 -35 55 0 21 3 21 150 21 l150 0 -18 -30z"/>
<path d="M17822 9829 c-25 -25 -32 -40 -33 -73 -7 -283 -12 -321 -33 -270 -12
27 -113 124 -130 124 -4 0 -32 12 -63 26 -49 23 -64 26 -133 22 -52 -3 -88
-11 -105 -22 -20 -13 -37 -16 -64 -11 -20 3 -54 7 -76 8 -47 2 -61 -18 -70
-104 -5 -49 -9 -56 -24 -52 -10 3 -43 34 -72 69 -30 37 -64 67 -79 71 -14 3
-30 13 -36 21 -15 21 -176 36 -237 21 -27 -6 -51 -18 -54 -25 -3 -8 -15 -14
-27 -14 -14 0 -49 -30 -102 -86 -80 -84 -82 -85 -88 -58 -10 39 -70 108 -113
130 -21 10 -46 25 -56 33 -11 10 -49 16 -106 19 -80 4 -95 2 -144 -22 -31 -14
-60 -26 -66 -26 -17 0 -78 -58 -102 -96 -11 -19 -29 -39 -40 -45 -16 -8 -21
-5 -29 17 -15 38 -96 110 -160 142 -49 24 -66 27 -160 27 -84 0 -111 -4 -133
-17 -33 -22 -80 -23 -112 -2 -29 19 -53 9 -84 -35 -20 -28 -21 -41 -21 -382 0
-349 0 -353 23 -386 25 -38 44 -47 81 -37 45 11 66 49 66 120 l0 64 33 -6 c17
-3 54 -10 80 -15 117 -22 229 6 305 77 26 24 50 44 54 44 4 0 14 16 22 35 8
19 19 35 23 35 5 0 46 -36 91 -79 70 -67 92 -82 147 -100 35 -12 84 -21 107
-21 104 0 257 93 288 174 5 15 11 46 11 69 1 23 3 33 6 22 2 -11 6 -31 9 -44
4 -20 95 -118 148 -159 35 -28 140 -62 191 -62 77 0 175 37 235 90 29 25 56
55 61 68 6 15 17 22 34 22 28 0 25 24 30 -236 0 -29 7 -60 15 -69 19 -23 59
-37 86 -31 34 9 64 69 64 127 0 61 14 69 81 46 71 -26 148 -22 215 10 69 32
184 140 184 172 0 46 17 9 24 -51 4 -44 13 -69 29 -86 36 -39 53 -44 92 -28
41 17 55 47 55 115 0 26 2 50 5 53 7 7 65 -47 65 -59 0 -28 155 -123 201 -123
8 0 20 -5 26 -11 19 -19 97 -14 172 11 56 19 85 36 118 69 64 64 75 84 75 141
-1 38 5 60 24 87 14 21 24 50 24 71 0 46 -21 113 -37 119 -7 3 -13 13 -13 23
0 10 -11 31 -24 47 -12 15 -28 38 -35 50 -7 13 -28 27 -54 34 -23 7 -50 20
-61 28 -27 23 -216 23 -242 0 -11 -9 -43 -22 -72 -29 -37 -9 -58 -20 -75 -41
-12 -17 -34 -45 -49 -63 -16 -19 -28 -39 -28 -45 0 -6 -4 -11 -9 -11 -6 0 -11
76 -13 176 l-3 176 -33 29 c-41 37 -60 37 -100 -2z m-2272 -400 c52 -54 67
-93 57 -152 -5 -33 -54 -117 -69 -117 -4 0 -17 -9 -29 -21 -29 -29 -149 -29
-178 0 -10 10 -23 20 -28 22 -18 8 -63 127 -63 168 0 48 15 70 90 134 22 19
69 26 128 21 36 -3 50 -12 92 -55z m1330 19 c23 -20 44 -50 54 -79 17 -45 16
-49 -4 -117 -18 -60 -27 -74 -65 -101 -38 -27 -52 -31 -107 -31 -57 0 -68 3
-102 32 -21 17 -45 46 -52 64 -26 63 -11 214 22 214 8 0 19 11 26 24 13 30 40
36 127 30 53 -4 69 -10 101 -36z m666 7 c79 -73 93 -142 48 -235 -38 -77 -68
-99 -140 -102 -54 -3 -63 0 -101 30 -45 37 -63 84 -63 165 0 92 48 163 116
170 63 7 113 -3 140 -28z m-1356 -5 l35 -29 -28 -10 c-36 -14 -177 -14 -212
-1 l-27 10 28 22 c16 13 31 26 32 30 2 5 34 8 70 8 59 -1 71 -4 102 -30z
m2228 0 c14 -19 19 -31 12 -35 -6 -4 -56 -9 -110 -12 -76 -5 -103 -3 -116 8
-15 12 -13 16 17 41 30 25 41 28 104 27 65 0 72 -2 93 -29z m62 -226 c2 -3
-20 -27 -50 -54 -51 -48 -56 -50 -109 -50 -46 0 -62 5 -88 28 -17 15 -33 38
-35 52 -3 22 2 26 32 30 40 6 243 0 250 -6z m-2220 2 c0 -8 -67 -73 -92 -89
-56 -35 -155 -15 -198 40 -40 51 -34 53 135 53 85 0 155 -2 155 -4z"/>
<path d="M8333 9834 c-18 -9 -34 -26 -38 -41 -11 -44 -8 -746 4 -775 14 -36
63 -50 110 -32 39 16 73 18 87 5 13 -13 117 -41 149 -41 60 0 169 42 226 87
31 24 60 52 63 61 3 9 17 32 30 49 l24 33 6 -25 c3 -13 39 -57 79 -97 55 -56
84 -77 123 -91 64 -21 171 -22 210 -2 16 8 36 15 45 15 8 0 19 4 25 9 5 6 24
6 50 -1 79 -21 107 2 141 116 l16 51 14 -35 c18 -42 91 -113 130 -127 117 -42
212 -51 285 -27 57 18 157 92 173 127 6 12 18 34 29 49 18 27 18 28 -9 60 -15
18 -34 37 -42 41 -23 14 -77 -11 -119 -54 -21 -22 -52 -47 -68 -55 -39 -19
-132 -19 -139 1 -4 8 -25 27 -49 42 -24 15 -46 32 -50 38 -4 5 -8 46 -8 90 0
44 4 85 8 91 4 6 24 19 45 29 21 10 42 26 48 36 15 29 136 27 170 -1 99 -85
126 -94 189 -62 30 15 35 21 31 47 -1 17 -6 32 -11 35 -4 3 -15 20 -25 39 -23
46 -72 89 -109 97 -17 3 -39 14 -50 23 -26 23 -189 23 -231 -1 -16 -9 -48 -21
-70 -27 -53 -14 -111 -67 -122 -111 -17 -64 -42 -41 -58 52 -3 21 -16 50 -29
65 -21 25 -26 26 -50 15 -38 -17 -92 -15 -123 6 -21 13 -48 17 -128 17 -90 -1
-105 -3 -155 -29 -30 -16 -70 -45 -88 -65 -18 -20 -39 -43 -47 -51 -8 -9 -20
-30 -28 -48 l-13 -31 -33 60 c-18 33 -44 65 -57 71 -13 6 -24 15 -24 20 0 5
-34 25 -76 45 -75 35 -78 36 -166 30 -63 -4 -96 -11 -108 -22 -10 -9 -27 -15
-37 -13 -15 3 -19 16 -23 86 -5 79 -7 85 -38 113 -37 33 -45 34 -89 13z m380
-354 c17 0 27 -5 27 -15 0 -9 10 -20 23 -26 16 -7 28 -28 41 -76 18 -62 18
-67 2 -119 -20 -64 -64 -110 -120 -125 -54 -15 -79 -6 -152 54 -60 49 -64 55
-65 97 -4 92 1 114 30 140 83 75 95 81 151 74 19 -2 47 -4 63 -4z m701 -26
c25 -21 39 -42 50 -84 20 -71 20 -72 -5 -139 -29 -80 -72 -111 -154 -111 -49
0 -66 4 -80 20 -10 11 -24 20 -32 20 -7 0 -13 6 -13 14 0 8 -11 28 -25 44 -21
25 -25 40 -25 91 0 66 9 82 88 151 44 39 144 35 196 -6z"/>
<path d="M10386 9827 c-21 -22 -23 -34 -29 -188 -4 -90 -5 -265 -2 -389 l4
-225 26 -22 c61 -53 129 -16 144 76 4 28 11 54 14 57 8 8 30 -12 87 -82 62
-76 112 -97 163 -66 58 34 43 71 -125 289 -34 44 -35 73 -4 110 50 60 116 168
116 190 0 30 -33 63 -63 63 -29 0 -107 -37 -107 -51 0 -5 -15 -25 -34 -44
l-35 -35 -6 43 c-4 24 -6 50 -5 58 1 8 2 49 1 91 -1 71 -3 80 -32 113 -38 42
-78 47 -113 12z"/>
<path d="M11126 9827 c-17 -24 -19 -84 -20 -548 -1 -239 0 -258 18 -278 14
-15 31 -21 63 -21 100 0 112 27 115 257 l2 178 5 -187 6 -188 30 -29 c45 -44
66 -46 103 -11 17 16 34 40 37 52 2 13 6 100 7 194 l3 171 34 32 c45 42 111
43 157 3 l31 -27 7 -185 c8 -187 11 -204 51 -244 22 -22 67 -20 96 3 24 19 24
21 27 250 4 243 7 256 47 211 16 -18 19 -44 22 -218 4 -217 8 -233 66 -257 41
-17 68 -4 96 45 19 35 21 53 21 221 0 101 3 194 6 205 4 15 16 23 35 26 27 4
29 2 29 -28 0 -17 -7 -37 -15 -44 -11 -9 -15 -35 -15 -105 0 -70 4 -96 15
-105 8 -7 15 -21 15 -32 0 -10 7 -32 15 -48 18 -35 140 -140 163 -140 9 0 30
-7 46 -15 33 -17 88 -19 148 -5 24 5 61 12 82 16 33 5 53 19 110 77 90 91 116
151 116 267 0 69 -4 88 -29 134 -16 30 -35 62 -42 71 -31 38 -85 85 -104 91
-11 4 -27 12 -35 19 -25 20 -183 38 -231 25 -59 -16 -157 -70 -179 -98 l-19
-24 -7 26 c-3 14 -9 26 -14 26 -11 0 -50 36 -50 46 0 5 -9 15 -20 22 -11 7
-20 23 -20 37 0 13 -5 46 -10 73 -8 36 -18 52 -39 65 -72 42 -125 6 -136 -94
-7 -59 -11 -67 -51 -105 -31 -28 -44 -48 -44 -67 l0 -27 -51 40 c-28 22 -56
40 -62 40 -6 0 -19 7 -29 16 -30 28 -151 31 -217 6 -48 -19 -55 -20 -76 -6
-21 14 -27 13 -62 -5 -56 -28 -62 -38 -66 -116 l-3 -70 -2 72 c-2 63 -5 74
-26 91 -22 17 -23 21 -10 34 21 20 30 128 14 157 -26 49 -129 68 -154 28z
m1510 -368 c59 -26 84 -72 84 -153 0 -53 -4 -68 -27 -99 -37 -48 -114 -87
-175 -87 -38 0 -52 5 -75 28 -69 67 -93 131 -79 205 8 45 78 124 114 130 42 7
112 -4 158 -24z"/>
<path d="M13287 9832 c-31 -19 -38 -35 -46 -112 -5 -44 -11 -57 -29 -66 -13
-6 -35 -27 -48 -46 -21 -30 -23 -39 -14 -64 15 -39 39 -64 61 -64 26 0 28 -17
31 -241 3 -165 6 -200 21 -222 28 -43 85 -48 132 -12 19 15 20 31 25 229 5
223 10 246 51 246 18 0 19 -11 19 -209 0 -210 4 -244 35 -274 24 -25 81 -22
109 6 22 23 23 31 28 219 l4 197 33 30 c27 26 41 31 81 31 39 0 54 -5 80 -30
l32 -30 6 -192 5 -193 28 -27 c30 -30 82 -38 121 -17 24 13 48 67 48 107 0 16
7 35 15 42 12 10 16 8 24 -11 5 -13 19 -34 32 -46 13 -12 29 -27 34 -32 83
-87 216 -119 334 -81 117 37 233 170 201 229 -9 17 -6 27 12 52 33 44 33 154
1 197 -12 17 -25 42 -29 56 -6 27 -66 84 -130 126 -36 23 -49 25 -150 25 -89
0 -116 -3 -130 -16 -11 -9 -32 -19 -48 -23 -33 -8 -126 -96 -126 -119 0 -19
-27 -47 -45 -47 -7 0 -19 16 -25 35 -12 35 -117 135 -142 135 -6 0 -20 8 -31
18 -16 14 -37 17 -121 16 -66 -1 -104 2 -108 10 -4 6 -8 37 -8 69 0 53 -3 61
-32 88 -39 35 -68 37 -104 6 -24 -21 -28 -33 -31 -88 -2 -35 -6 -74 -9 -87
l-4 -22 -29 21 c-26 19 -29 28 -33 91 -3 59 -8 74 -27 89 -29 23 -67 24 -104
1z m1241 -381 c21 -18 29 -31 23 -36 -20 -12 -185 -14 -226 -3 -34 9 -37 12
-20 19 11 4 31 17 45 28 19 16 39 21 85 20 51 0 65 -4 93 -28z m72 -227 c0 -8
-49 -53 -88 -81 -61 -45 -173 -19 -207 48 -8 15 -15 30 -15 34 0 3 70 5 155 5
85 0 155 -3 155 -6z"/>
<path d="M18996 9820 c-13 -17 -28 -49 -31 -73 -4 -23 -5 -186 -3 -362 3 -296
4 -323 23 -360 17 -33 26 -41 53 -43 19 -2 47 1 63 7 18 6 37 7 47 2 57 -29
98 -41 137 -41 63 0 166 29 197 56 16 12 38 26 50 30 25 7 92 72 100 95 4 11
10 12 31 2 15 -7 27 -18 27 -26 0 -18 108 -121 147 -141 38 -19 154 -22 186
-4 12 6 60 14 107 17 82 6 85 7 100 36 18 36 41 36 80 0 31 -30 107 -65 140
-65 67 0 190 61 190 95 0 7 9 17 20 20 13 4 23 19 28 38 6 28 7 23 13 -31 8
-81 27 -103 83 -94 33 6 44 14 66 52 15 25 32 59 38 75 10 28 10 28 11 6 1
-13 6 -41 13 -63 21 -70 101 -90 142 -35 19 26 21 46 27 223 l5 195 30 24 c23
20 40 24 89 24 55 0 62 -3 85 -32 24 -30 25 -38 31 -222 3 -104 9 -198 13
-208 13 -28 61 -49 88 -38 45 17 60 46 69 132 7 77 19 119 19 70 0 -34 18 -61
70 -111 69 -65 99 -85 150 -100 82 -23 123 -23 201 0 63 19 82 30 129 77 48
48 57 53 77 44 13 -6 23 -15 23 -21 0 -6 16 -27 37 -47 58 -59 193 -89 261
-58 71 32 80 37 92 60 21 40 53 39 96 0 49 -45 111 -75 156 -75 48 0 136 41
173 80 29 30 30 34 33 146 l4 115 -44 40 c-23 23 -52 49 -63 59 -11 10 -39 21
-62 25 -39 6 -43 9 -43 36 0 19 5 29 15 29 8 0 15 -7 15 -16 0 -17 45 -38 101
-49 32 -6 39 -3 58 20 42 55 16 144 -54 187 -56 34 -80 40 -141 36 -51 -3 -68
-9 -104 -38 -23 -18 -50 -47 -60 -63 l-18 -28 -51 51 c-28 28 -67 58 -86 66
-49 20 -123 18 -170 -6 -22 -11 -45 -20 -51 -20 -25 0 -74 -52 -84 -91 l-11
-39 -29 15 c-16 8 -31 24 -35 34 -3 11 -14 23 -25 26 -10 3 -21 12 -23 20 -3
7 -30 26 -59 40 -44 23 -70 28 -148 32 -72 3 -101 0 -120 -11 -14 -8 -44 -24
-67 -35 -24 -11 -43 -24 -43 -29 0 -5 -9 -12 -21 -15 -11 -3 -23 -15 -26 -26
-3 -12 -9 -21 -14 -21 -13 0 -39 -55 -39 -82 l0 -22 -17 24 c-9 14 -23 31 -30
38 -7 7 -15 28 -19 47 -7 37 -49 81 -89 91 -14 3 -25 10 -25 15 0 15 -84 31
-139 26 -29 -3 -75 -14 -101 -23 -45 -16 -49 -16 -65 -1 -20 21 -28 21 -70 2
-38 -19 -55 -63 -56 -151 0 -45 -2 -54 -9 -37 -5 13 -9 43 -8 67 0 34 -6 52
-25 75 -22 26 -24 34 -16 73 22 103 22 112 -3 148 -18 27 -31 36 -59 38 -57 5
-74 -23 -73 -117 0 -42 1 -85 2 -96 2 -11 -1 -49 -6 -85 -7 -55 -10 -61 -16
-38 -4 15 -15 33 -23 40 -8 7 -19 22 -23 34 -21 55 -183 95 -237 58 -15 -10
-41 -23 -57 -29 -16 -5 -34 -19 -40 -30 -21 -39 -66 -50 -66 -16 0 10 -9 30
-21 45 -26 33 -67 34 -103 1 l-26 -24 0 -168 c0 -147 -3 -174 -21 -213 -29
-65 -63 -89 -124 -90 -46 0 -52 3 -80 38 l-30 37 -3 195 c-2 124 -7 199 -14
208 -7 7 -25 20 -41 28 -51 27 -117 -16 -117 -78 0 -14 -5 -39 -11 -55 l-12
-28 -10 33 c-6 18 -24 43 -41 55 -17 12 -37 27 -43 33 -7 7 -30 18 -50 24 -21
7 -43 17 -50 22 -7 5 -34 15 -62 23 -40 10 -62 10 -118 0 -37 -6 -75 -15 -84
-19 -25 -11 -38 15 -50 100 -6 44 -18 87 -26 97 -26 28 -77 22 -107 -13z m392
-352 c8 -7 23 -17 35 -23 22 -11 47 -81 47 -134 0 -57 -31 -142 -56 -152 -12
-4 -27 -16 -32 -25 -8 -14 -24 -18 -75 -18 -61 -1 -66 1 -97 34 -37 39 -70
114 -70 159 0 76 60 165 118 174 40 7 113 -1 130 -15z m1115 -8 c3 -11 18 -25
34 -31 15 -6 35 -17 44 -25 14 -12 18 -12 34 6 10 11 28 20 40 20 11 0 26 5
33 12 9 9 12 -11 11 -92 -1 -83 -3 -98 -10 -72 -6 21 -16 32 -28 32 -10 0 -24
11 -31 25 -7 14 -26 27 -44 31 -17 3 -39 14 -48 24 -9 10 -35 21 -57 25 -37 6
-41 10 -41 36 0 25 4 29 29 29 20 0 30 -6 34 -20z m1407 1 c5 -11 20 -21 32
-23 13 -2 23 -9 23 -17 0 -12 -24 -15 -130 -16 -78 -1 -133 3 -137 9 -3 5 6
22 20 37 24 24 35 27 104 28 67 1 79 -2 88 -18z m510 0 c13 -25 73 -45 116
-38 38 6 84 -22 84 -53 0 -30 21 -69 42 -75 10 -4 30 -17 46 -29 15 -13 46
-27 69 -30 34 -6 43 -13 52 -37 11 -33 -4 -84 -23 -74 -6 3 -19 8 -28 11 -9 3
-24 21 -32 39 -9 18 -23 35 -31 39 -8 3 -15 12 -15 21 0 11 -11 15 -45 15 -34
0 -47 4 -52 18 -8 24 -80 92 -98 92 -7 0 -26 11 -41 25 -15 14 -35 25 -45 25
-21 0 -59 37 -59 57 0 20 48 15 60 -6z m-1521 -168 c0 -47 -3 -62 -9 -48 -14
34 -10 115 6 115 2 0 4 -30 3 -67z m-599 32 c0 -9 13 -24 30 -33 40 -23 38
-40 -6 -48 -28 -5 -40 -2 -55 13 -17 16 -18 23 -8 51 11 33 39 44 39 17z
m1924 -34 c3 -5 21 -12 40 -15 19 -4 39 -13 45 -20 7 -8 27 -17 45 -20 36 -7
66 -41 66 -75 0 -48 -46 -33 -115 38 -44 45 -54 51 -92 51 -48 0 -63 15 -37
35 22 17 40 19 48 6z m-1746 -84 c13 -12 22 -32 22 -49 0 -24 -4 -28 -27 -28
-21 1 -36 12 -60 44 -18 24 -33 49 -33 56 0 19 70 3 98 -23z m1498 7 c-3 -9
-6 -22 -6 -30 0 -8 -8 -18 -17 -21 -10 -4 -29 -15 -42 -25 -34 -26 -150 -26
-173 1 -8 10 -21 20 -27 22 -6 2 -13 19 -17 37 l-6 32 147 0 c130 0 146 -2
141 -16z"/>
<path d="M3681 9658 c-30 -5 -62 -14 -70 -22 -9 -7 -27 -16 -42 -19 -32 -8
-117 -91 -125 -123 -5 -18 -13 -24 -33 -24 -22 0 -29 7 -40 38 -18 51 -53 86
-120 119 -49 25 -67 28 -143 27 -71 0 -92 -4 -108 -19 -19 -17 -25 -17 -71 -6
-37 10 -54 10 -62 2 -6 -6 -18 -11 -27 -11 -9 0 -24 -8 -33 -18 -14 -15 -16
-55 -18 -282 -1 -284 2 -308 48 -329 38 -17 60 -13 95 18 l33 29 5 174 c3 104
10 181 17 194 23 41 79 74 125 74 37 0 49 -6 79 -36 l34 -35 5 -182 c6 -221
15 -247 88 -247 39 0 82 38 82 72 0 13 5 41 11 63 10 36 13 38 23 21 6 -10 26
-36 44 -58 38 -48 40 -61 8 -76 -35 -16 -44 -76 -17 -113 12 -16 21 -32 21
-37 0 -5 24 -24 53 -43 51 -33 54 -34 177 -37 70 -2 143 1 166 7 50 13 115 75
150 143 l27 53 4 288 c3 159 2 299 -1 311 -3 13 -22 36 -42 51 -36 28 -38 28
-66 12 -32 -18 -88 -23 -88 -8 0 22 -117 39 -189 29z m164 -224 c48 -46 51
-58 46 -159 -2 -27 -6 -52 -10 -55 -4 -3 -14 -15 -22 -27 -28 -40 -87 -73
-131 -73 -40 0 -54 8 -96 54 -9 10 -26 28 -36 39 -16 17 -20 35 -20 101 l0 79
47 43 c75 67 152 67 222 -2z m-2 -475 c-6 -6 -18 -6 -28 -3 -18 7 -18 8 1 14
23 9 39 1 27 -11z"/>
<path d="M8504 4755 c-153 -77 -377 -325 -573 -638 -65 -103 -244 -447 -236
-455 2 -2 43 24 92 59 356 257 729 660 828 894 25 59 25 133 1 151 -28 20 -55
17 -112 -11z"/>
<path d="M18433 2234 c-510 -393 -693 -600 -693 -788 0 -64 26 -95 89 -103 36
-5 49 -1 99 32 178 118 399 431 591 838 33 70 58 127 56 127 -2 0 -66 -48
-142 -106z"/>
</g>
</svg>
